<svg width="76" height="76" viewBox="0 0 76 76" fill="none" xmlns="http://www.w3.org/2000/svg">
<rect width="76" height="76" rx="28" fill="#E9EAFB"/>
<path d="M46.865 44.602L49.4346 52.3104C49.9672 53.9078 49.2866 55.6582 47.8146 56.4764C45.0712 58.0012 41.6286 58.75 37.5 58.75C33.3715 58.75 29.9289 58.0012 27.1854 56.4764C25.7135 55.6582 25.0329 53.908 25.5654 52.3104L28.1351 44.602C30.7366 46.5776 33.9814 47.75 37.5 47.75C41.0186 47.75 44.2634 46.5776 46.865 44.602ZM37.5 18.75C40.1732 18.75 42.6648 19.527 44.7616 20.8674C44.5964 21.494 44.3448 21.9555 44.0252 22.2751C43.52 22.7802 42.6608 23.1154 41.3758 23.2173L40.9316 23.2425L40.1746 23.2617C35.836 23.5794 35.9444 30.25 40.5 30.25C42.2804 30.25 43.413 30.6127 44.0252 31.2249C44.5302 31.7299 44.8654 32.5891 44.9672 33.8741L44.9926 34.3183L45.0118 35.0754C45.2042 37.7036 47.728 38.7 49.688 38.0642C47.5156 42.6092 42.8746 45.75 37.5 45.75C30.0442 45.75 24 39.7058 24 32.25C24 24.7942 30.0442 18.75 37.5 18.75ZM50 18.75C50 21.0492 50.5398 22.6684 51.5606 23.6893C52.503 24.6317 53.9552 25.1641 55.9814 25.2404L56.5 25.25C58.4166 25.25 58.4966 28.0052 56.7396 28.2348L56.5 28.25C54.2008 28.25 52.5816 28.7897 51.5606 29.8107C50.6182 30.7531 50.0858 32.2052 50.0096 34.2314L50 34.75C50 36.75 47 36.75 47 34.75C47 32.4508 46.4602 30.8316 45.4394 29.8107C44.497 28.8683 43.0448 28.3359 41.0186 28.2596L40.5 28.25C38.5834 28.25 38.5034 25.4948 40.2604 25.2652L40.5 25.25C42.7992 25.25 44.4184 24.7103 45.4394 23.6893C46.4602 22.6684 47 21.0492 47 18.75C47 16.75 50 16.75 50 18.75Z" fill="#4045BF"/>
</svg>
