<svg width="76" height="76" viewBox="0 0 76 76" fill="none" xmlns="http://www.w3.org/2000/svg">
<rect width="76" height="76" rx="28" fill="#E9EAFB"/>
<path d="M27 19.5C27 18.6716 26.3284 18 25.5 18C24.6716 18 24 18.6716 24 19.5C24 22.0413 25.8561 23.3344 27.0114 24.1393L27.1398 24.2288C28.4997 25.1808 29 25.6378 29 26.5C29 27.3284 29.6716 28 30.5 28C31.3284 28 32 27.3284 32 26.5C32 23.9587 30.1439 22.6656 28.9886 21.8607L28.8602 21.7712C27.5003 20.8192 27 20.3622 27 19.5ZM25.6429 30C23.631 30 22 31.631 22 33.6429V42C22 50.8366 29.1634 58 38 58C44.7148 58 50.4634 53.8636 52.837 48H55.5C59.0898 48 62 45.0898 62 41.5C62 37.9102 59.0898 35 55.5 35H54V33.6429C54 31.631 52.369 30 50.3572 30H25.6429ZM55.5 45H53.7192C53.9036 44.0282 54 43.0254 54 42V38H55.5C57.433 38 59 39.567 59 41.5C59 43.433 57.433 45 55.5 45ZM33.5 18C34.3284 18 35 18.6716 35 19.5C35 20.3622 35.5003 20.8192 36.8602 21.7712L36.9886 21.8607C38.1438 22.6656 40 23.9587 40 26.5C40 27.3284 39.3284 28 38.5 28C37.6716 28 37 27.3284 37 26.5C37 25.6378 36.4998 25.1808 35.1398 24.2288L35.0114 24.1393C33.8561 23.3344 32 22.0413 32 19.5C32 18.6716 32.6716 18 33.5 18ZM43 19.5C43 18.6716 42.3284 18 41.5 18C40.6716 18 40 18.6716 40 19.5C40 22.0413 41.8562 23.3344 43.0114 24.1393L43.1398 24.2288C44.4998 25.1808 45 25.6378 45 26.5C45 27.3284 45.6716 28 46.5 28C47.3284 28 48 27.3284 48 26.5C48 23.9587 46.1438 22.6656 44.9886 21.8607L44.8602 21.7712C43.5002 20.8192 43 20.3622 43 19.5Z" fill="#4045BF"/>
</svg>
