<svg width="416" height="307" viewBox="0 0 416 307" fill="none" xmlns="http://www.w3.org/2000/svg">
<rect width="416" height="307" fill="#FFFFFF"/>
<path opacity="0.2" d="M383.308 259.06H39.6381C36.686 259.06 34.2925 256.666 34.2925 253.713V12.5441C34.2925 9.59145 36.686 7.19751 39.6381 7.19751H383.308C386.26 7.19751 388.654 9.59145 388.654 12.5441V253.717C388.654 256.666 386.26 259.06 383.308 259.06Z" fill="#ABBDFF"/>
<path opacity="0.27" d="M363.489 98.8813H343.117C340.423 98.8813 338.221 101.084 338.221 103.779V111.339L343.117 108.676H363.489C366.183 108.676 368.385 106.473 368.385 103.779C368.385 101.084 366.183 98.8813 363.489 98.8813Z" fill="#002663"/>
<path d="M363.135 98.5276H342.764C340.07 98.5276 337.867 100.731 337.867 103.425V110.985L342.764 108.323H363.135C365.829 108.323 368.032 106.12 368.032 103.425C368.032 100.731 365.829 98.5276 363.135 98.5276Z" fill="#DCE6FF"/>
<path opacity="0.27" d="M116.195 120.225H94.6106C93.6914 120.225 92.9419 119.479 92.9419 118.556V69.8995C92.9419 68.9801 93.6879 68.2305 94.6106 68.2305H116.195C117.114 68.2305 117.863 68.9766 117.863 69.8995V118.556C117.863 119.479 117.117 120.225 116.195 120.225Z" fill="#002663"/>
<path d="M115.841 119.872H94.2571C93.3379 119.872 92.5884 119.126 92.5884 118.203V69.5462C92.5884 68.6269 93.3344 67.8772 94.2571 67.8772H115.841C116.76 67.8772 117.51 68.6233 117.51 69.5462V118.203C117.51 119.126 116.764 119.872 115.841 119.872Z" fill="#DCE6FF"/>
<path d="M105.051 90.625C110.194 90.625 114.364 86.455 114.364 81.3109C114.364 76.1669 110.194 71.9968 105.051 71.9968C99.908 71.9968 95.7388 76.1669 95.7388 81.3109C95.7388 86.455 99.908 90.625 105.051 90.625Z" fill="white"/>
<path opacity="0.27" d="M86.518 120.225H64.9341C64.0149 120.225 63.2654 119.479 63.2654 118.556V69.8995C63.2654 68.9801 64.0114 68.2305 64.9341 68.2305H86.518C87.4372 68.2305 88.1868 68.9766 88.1868 69.8995V118.556C88.1832 119.479 87.4372 120.225 86.518 120.225Z" fill="#002663"/>
<path d="M86.1645 119.872H64.5806C63.6614 119.872 62.9119 119.126 62.9119 118.203V69.5462C62.9119 68.6269 63.6579 67.8772 64.5806 67.8772H86.1645C87.0837 67.8772 87.8333 68.6233 87.8333 69.5462V118.203C87.8297 119.126 87.0837 119.872 86.1645 119.872Z" fill="#DCE6FF"/>
<path d="M179.115 206.743L171.132 210.123L178.051 215.35L179.115 206.743Z" stroke="#603913" stroke-miterlimit="10" stroke-linejoin="round"/>
<path d="M239.988 223.48L237.429 228.678L243.209 228.299L239.988 223.48Z" stroke="#603913" stroke-miterlimit="10" stroke-linejoin="round"/>
<path d="M347.229 155.823C349.945 155.823 352.147 153.621 352.147 150.905C352.147 148.188 349.945 145.986 347.229 145.986C344.513 145.986 342.311 148.188 342.311 150.905C342.311 153.621 344.513 155.823 347.229 155.823Z" stroke="#603913" stroke-miterlimit="10"/>
<path opacity="0.27" d="M366.568 88.153H245.864C245.143 88.153 244.556 87.566 244.556 86.8447V33.9092C244.556 33.1878 245.143 32.6008 245.864 32.6008H366.568C367.289 32.6008 367.876 33.1878 367.876 33.9092V86.8447C367.88 87.5696 367.293 88.153 366.568 88.153Z" fill="#002663"/>
<path d="M366.214 87.799H245.511C244.79 87.799 244.203 87.212 244.203 86.4907V33.5552C244.203 32.8338 244.79 32.2468 245.511 32.2468H366.214C366.936 32.2468 367.523 32.8338 367.523 33.5552V86.4907C367.526 87.2156 366.939 87.799 366.214 87.799Z" fill="#DCE6FF"/>
<path d="M289.089 44.7086V75.3383C289.089 76.5017 288.145 77.4458 286.982 77.4458H256.358C255.202 77.4458 254.258 76.5017 254.258 75.3383V44.7086C254.258 43.5452 255.202 42.6011 256.358 42.6011H286.982C288.145 42.6011 289.089 43.5452 289.089 44.7086Z" fill="white"/>
<path d="M289.089 62.9509V75.3379C289.089 76.5012 288.145 77.4454 286.982 77.4454H256.358C255.198 77.4454 254.258 76.5048 254.258 75.3449V71.4623L265.681 60.4827C266.448 59.7472 267.622 59.6446 268.502 60.2352L277.008 65.9354L281.611 60.6489C282.329 59.825 283.535 59.6305 284.472 60.1927L289.089 62.9509Z" fill="#C0D3F9"/>
<g opacity="0.27">
<path d="M307.455 48.3686C307.455 49.3517 307.194 50.2746 306.727 51.0667C305.79 52.6756 304.047 53.7612 302.057 53.7612C300.063 53.7612 298.327 52.6756 297.394 51.0667C296.93 50.2711 296.665 49.3517 296.665 48.3686C296.665 45.3877 299.08 42.969 302.057 42.969C305.041 42.969 307.455 45.3877 307.455 48.3686Z" fill="#002663"/>
<path d="M306.731 51.0696C305.794 52.6786 304.051 53.7642 302.06 53.7642C300.066 53.7642 298.33 52.6786 297.397 51.0696C298.327 49.4536 300.07 48.3716 302.06 48.3716C304.058 48.3681 305.801 49.4536 306.731 51.0696Z" fill="#002663"/>
<path d="M302.06 48.3646C303.246 48.3646 304.206 47.4036 304.206 46.2182C304.206 45.0328 303.246 44.0718 302.06 44.0718C300.875 44.0718 299.914 45.0328 299.914 46.2182C299.914 47.4036 300.875 48.3646 302.06 48.3646Z" fill="#002663"/>
</g>
<path d="M307.102 48.0149C307.102 48.9979 306.84 49.9208 306.374 50.7129C305.437 52.3218 303.694 53.4074 301.703 53.4074C299.709 53.4074 297.973 52.3218 297.04 50.7129C296.577 49.9173 296.312 48.9979 296.312 48.0149C296.312 45.0339 298.726 42.6152 301.703 42.6152C304.687 42.6152 307.102 45.0339 307.102 48.0149Z" fill="#E8E8E8"/>
<path d="M306.377 50.7161C305.44 52.3251 303.697 53.4106 301.707 53.4106C299.713 53.4106 297.977 52.3251 297.043 50.7161C297.973 49.1001 299.716 48.0181 301.707 48.0181C303.704 48.0145 305.447 49.1001 306.377 50.7161Z" fill="white"/>
<path d="M301.707 48.0111C302.892 48.0111 303.853 47.0501 303.853 45.8647C303.853 44.6792 302.892 43.7183 301.707 43.7183C300.521 43.7183 299.561 44.6792 299.561 45.8647C299.561 47.0501 300.521 48.0111 301.707 48.0111Z" fill="white"/>
<path d="M336.906 48.7822L335.573 42.396C332.593 43.0785 329.863 44.8677 328.06 47.6224C326.257 50.377 325.709 53.5913 326.275 56.597L332.66 55.2639C332.437 53.8989 332.699 52.4491 333.519 51.1938C334.339 49.942 335.566 49.1217 336.906 48.7822Z" fill="#FFC880"/>
<path d="M351.38 52.99C351.352 52.8415 351.32 52.6894 351.288 52.5444C350.623 49.6378 348.88 46.9751 346.193 45.2176C343.503 43.4566 340.367 42.9192 337.436 43.4779L338.733 49.7085C340.066 49.4857 341.484 49.7438 342.707 50.543C343.931 51.3422 344.733 52.5409 345.058 53.8493C345.097 53.9978 345.129 54.1463 345.15 54.2948C345.373 55.6279 345.115 57.0424 344.312 58.2623C343.513 59.4858 342.322 60.285 341.01 60.6138C340.865 60.6527 340.717 60.681 340.565 60.7058C339.236 60.9321 337.818 60.6739 336.595 59.8748C335.371 59.0756 334.569 57.8769 334.24 56.565L328.01 57.8627C328.675 60.7729 330.418 63.4356 333.109 65.1966C335.796 66.9541 338.928 67.4915 341.862 66.9399C342.011 66.9116 342.163 66.8798 342.308 66.848C345.218 66.1832 347.88 64.4399 349.64 61.7489C351.401 59.0615 351.935 55.925 351.38 52.99Z" fill="#00AEEF"/>
<path d="M327.866 74.4753C328.549 74.4753 329.103 73.9212 329.103 73.2376C329.103 72.5541 328.549 72 327.866 72C327.182 72 326.628 72.5541 326.628 73.2376C326.628 73.9212 327.182 74.4753 327.866 74.4753Z" fill="#FFC880"/>
<path d="M327.866 78.1071C328.549 78.1071 329.103 77.553 329.103 76.8695C329.103 76.1859 328.549 75.6318 327.866 75.6318C327.182 75.6318 326.628 76.1859 326.628 76.8695C326.628 77.553 327.182 78.1071 327.866 78.1071Z" fill="#00AEEF"/>
<path d="M331.765 73.2378H351.026" stroke="#00AEEF" stroke-width="2" stroke-miterlimit="10" stroke-linecap="round"/>
<path d="M331.765 76.8689H351.026" stroke="#00AEEF" stroke-width="2" stroke-miterlimit="10" stroke-linecap="round"/>
<path d="M297.022 59.4219H315.771" stroke="#00AEEF" stroke-width="3" stroke-miterlimit="10" stroke-linecap="round"/>
<path d="M297.022 64.2739H306.395" stroke="#00AEEF" stroke-width="3" stroke-miterlimit="10" stroke-linecap="round"/>
<path opacity="0.27" d="M149.485 53.0538H63.3965C62.7248 53.0538 62.1838 52.5092 62.1838 51.8409V33.8174C62.1838 33.1455 62.7283 32.6045 63.3965 32.6045H149.485C150.156 32.6045 150.697 33.1491 150.697 33.8174V51.8409C150.697 52.5092 150.153 53.0538 149.485 53.0538Z" fill="#002663"/>
<path d="M149.131 52.7H63.0428C62.371 52.7 61.8301 52.1555 61.8301 51.4871V33.4636C61.8301 32.7918 62.3746 32.2507 63.0428 32.2507H149.131C149.803 32.2507 150.344 32.7953 150.344 33.4636V51.4871C150.344 52.1555 149.799 52.7 149.131 52.7Z" fill="#DCE6FF"/>
<g opacity="0.27">
<path d="M78.6588 53.0534C78.6588 54.0365 78.3972 54.9594 77.9305 55.7515C76.9937 57.3604 75.2507 58.446 73.2602 58.446C71.2662 58.446 69.5303 57.3604 68.597 55.7515C68.1338 54.9559 67.8687 54.0365 67.8687 53.0534C67.8687 50.0725 70.2834 47.6538 73.2602 47.6538C76.2406 47.6538 78.6588 50.0725 78.6588 53.0534Z" fill="#002663"/>
<path d="M77.9305 55.7515C76.9936 57.3604 75.2506 58.446 73.2602 58.446C71.2662 58.446 69.5303 57.3604 68.5969 55.7515C69.5267 54.1355 71.2697 53.0535 73.2602 53.0535C75.2577 53.0535 77.0007 54.1355 77.9305 55.7515Z" fill="#002663"/>
<path d="M73.2637 53.0504C74.4489 53.0504 75.4097 52.0894 75.4097 50.904C75.4097 49.7185 74.4489 48.7576 73.2637 48.7576C72.0785 48.7576 71.1177 49.7185 71.1177 50.904C71.1177 52.0894 72.0785 53.0504 73.2637 53.0504Z" fill="#002663"/>
</g>
<path d="M78.3053 52.6997C78.3053 53.6827 78.0437 54.6056 77.577 55.3977C76.6401 57.0067 74.8972 58.0922 72.9067 58.0922C70.9127 58.0922 69.1768 57.0067 68.2434 55.3977C67.7803 54.6021 67.5151 53.6827 67.5151 52.6997C67.5151 49.7187 69.9298 47.3 72.9067 47.3C75.8871 47.3 78.3053 49.7187 78.3053 52.6997Z" fill="#E8E8E8"/>
<path d="M77.577 55.3978C76.6401 57.0067 74.8971 58.0923 72.9067 58.0923C70.9127 58.0923 69.1768 57.0067 68.2434 55.3978C69.1732 53.7818 70.9162 52.6997 72.9067 52.6997C74.9042 52.6997 76.6472 53.7818 77.577 55.3978Z" fill="white"/>
<path d="M72.9102 52.6969C74.0954 52.6969 75.0562 51.7359 75.0562 50.5505C75.0562 49.365 74.0954 48.4041 72.9102 48.4041C71.725 48.4041 70.7642 49.365 70.7642 50.5505C70.7642 51.7359 71.725 52.6969 72.9102 52.6969Z" fill="white"/>
<g opacity="0.27">
<path d="M87.6566 53.0534C87.6566 54.0365 87.395 54.9594 86.9283 55.7515C85.9915 57.3604 84.2485 58.446 82.258 58.446C80.264 58.446 78.5281 57.3604 77.5948 55.7515C77.1316 54.9559 76.8665 54.0365 76.8665 53.0534C76.8665 50.0725 79.2812 47.6538 82.258 47.6538C85.2419 47.6538 87.6566 50.0725 87.6566 53.0534Z" fill="#002663"/>
<path d="M86.9283 55.7515C85.9914 57.3604 84.2484 58.446 82.258 58.446C80.264 58.446 78.5281 57.3604 77.5947 55.7515C78.5245 54.1355 80.2675 53.0535 82.258 53.0535C84.259 53.0535 86.002 54.1355 86.9283 55.7515Z" fill="#002663"/>
<path d="M82.2615 53.0504C83.4467 53.0504 84.4075 52.0894 84.4075 50.904C84.4075 49.7185 83.4467 48.7576 82.2615 48.7576C81.0763 48.7576 80.1155 49.7185 80.1155 50.904C80.1155 52.0894 81.0763 53.0504 82.2615 53.0504Z" fill="#002663"/>
</g>
<path d="M87.3031 52.6997C87.3031 53.6827 87.0415 54.6056 86.5748 55.3977C85.6379 57.0067 83.895 58.0922 81.9045 58.0922C79.9105 58.0922 78.1746 57.0067 77.2412 55.3977C76.7781 54.6021 76.5129 53.6827 76.5129 52.6997C76.5129 49.7187 78.9277 47.3 81.9045 47.3C84.8884 47.3 87.3031 49.7187 87.3031 52.6997Z" fill="#E8E8E8"/>
<path d="M86.5748 55.3978C85.6379 57.0067 83.8949 58.0923 81.9045 58.0923C79.9105 58.0923 78.1746 57.0067 77.2412 55.3978C78.171 53.7818 79.914 52.6997 81.9045 52.6997C83.9055 52.6997 85.6485 53.7818 86.5748 55.3978Z" fill="white"/>
<path d="M81.9077 52.6969C83.093 52.6969 84.0538 51.7359 84.0538 50.5505C84.0538 49.365 83.093 48.4041 81.9077 48.4041C80.7225 48.4041 79.7617 49.365 79.7617 50.5505C79.7617 51.7359 80.7225 52.6969 81.9077 52.6969Z" fill="white"/>
<g opacity="0.27">
<path d="M96.6542 53.0534C96.6542 54.0365 96.3926 54.9594 95.9259 55.7515C94.989 57.3604 93.246 58.446 91.2556 58.446C89.2616 58.446 87.5257 57.3604 86.5923 55.7515C86.1292 54.9559 85.864 54.0365 85.864 53.0534C85.864 50.0725 88.2787 47.6538 91.2556 47.6538C94.2395 47.6538 96.6542 50.0725 96.6542 53.0534Z" fill="#002663"/>
<path d="M95.9295 55.7515C94.9926 57.3604 93.2497 58.446 91.2592 58.446C89.2652 58.446 87.5293 57.3604 86.5959 55.7515C87.5258 54.1355 89.2687 53.0535 91.2592 53.0535C93.2567 53.0535 94.9997 54.1355 95.9295 55.7515Z" fill="#002663"/>
<path d="M91.2627 53.0504C92.4479 53.0504 93.4087 52.0894 93.4087 50.904C93.4087 49.7185 92.4479 48.7576 91.2627 48.7576C90.0775 48.7576 89.1167 49.7185 89.1167 50.904C89.1167 52.0894 90.0775 53.0504 91.2627 53.0504Z" fill="#002663"/>
</g>
<path d="M96.3007 52.6997C96.3007 53.6827 96.039 54.6056 95.5724 55.3977C94.6355 57.0067 92.8925 58.0922 90.9021 58.0922C88.9081 58.0922 87.1722 57.0067 86.2388 55.3977C85.7757 54.6021 85.5105 53.6827 85.5105 52.6997C85.5105 49.7187 87.9252 47.3 90.9021 47.3C93.886 47.3 96.3007 49.7187 96.3007 52.6997Z" fill="#E8E8E8"/>
<path d="M95.576 55.3978C94.6391 57.0067 92.8961 58.0923 90.9057 58.0923C88.9117 58.0923 87.1758 57.0067 86.2424 55.3978C87.1723 53.7818 88.9152 52.6997 90.9057 52.6997C92.9032 52.6997 94.6462 53.7818 95.576 55.3978Z" fill="white"/>
<path d="M90.9092 52.6969C92.0944 52.6969 93.0552 51.7359 93.0552 50.5505C93.0552 49.365 92.0944 48.4041 90.9092 48.4041C89.724 48.4041 88.7632 49.365 88.7632 50.5505C88.7632 51.7359 89.724 52.6969 90.9092 52.6969Z" fill="white"/>
<g opacity="0.27">
<path d="M105.655 53.0534C105.655 54.0365 105.394 54.9594 104.927 55.7515C103.99 57.3604 102.247 58.446 100.257 58.446C98.2628 58.446 96.5269 57.3604 95.5935 55.7515C95.1304 54.9559 94.8652 54.0365 94.8652 53.0534C94.8652 50.0725 97.2799 47.6538 100.257 47.6538C103.237 47.6538 105.655 50.0725 105.655 53.0534Z" fill="#002663"/>
<path d="M104.927 55.7515C103.99 57.3604 102.247 58.446 100.257 58.446C98.2628 58.446 96.5269 57.3604 95.5935 55.7515C96.5233 54.1355 98.2663 53.0535 100.257 53.0535C102.254 53.0535 104.001 54.1355 104.927 55.7515Z" fill="#002663"/>
<path d="M100.26 53.0504C101.445 53.0504 102.406 52.0894 102.406 50.904C102.406 49.7185 101.445 48.7576 100.26 48.7576C99.0751 48.7576 98.1143 49.7185 98.1143 50.904C98.1143 52.0894 99.0751 53.0504 100.26 53.0504Z" fill="#002663"/>
</g>
<path d="M105.302 52.6997C105.302 53.6827 105.04 54.6056 104.574 55.3977C103.637 57.0067 101.894 58.0922 99.9033 58.0922C97.9093 58.0922 96.1734 57.0067 95.24 55.3977C94.7769 54.6021 94.5117 53.6827 94.5117 52.6997C94.5117 49.7187 96.9264 47.3 99.9033 47.3C102.884 47.3 105.302 49.7187 105.302 52.6997Z" fill="#E8E8E8"/>
<path d="M104.574 55.3978C103.637 57.0067 101.894 58.0923 99.9032 58.0923C97.9093 58.0923 96.1733 57.0067 95.24 55.3978C96.1698 53.7818 97.9128 52.6997 99.9032 52.6997C101.901 52.6997 103.647 53.7818 104.574 55.3978Z" fill="white"/>
<path d="M99.907 52.6969C101.092 52.6969 102.053 51.7359 102.053 50.5505C102.053 49.365 101.092 48.4041 99.907 48.4041C98.7218 48.4041 97.761 49.365 97.761 50.5505C97.761 51.7359 98.7218 52.6969 99.907 52.6969Z" fill="white"/>
<path d="M69.0459 38.0186H119.571" stroke="#00AEEF" stroke-width="3" stroke-miterlimit="10" stroke-linecap="round"/>
<path d="M69.0459 43.1138H95.24" stroke="#00AEEF" stroke-width="3" stroke-miterlimit="10" stroke-linecap="round"/>
<path d="M102.654 43.1138H132.889" stroke="#00AEEF" stroke-width="3" stroke-miterlimit="10" stroke-linecap="round"/>
<path opacity="0.27" d="M224.489 88.6834H138.401C137.729 88.6834 137.188 88.1389 137.188 87.4705V69.447C137.188 68.7752 137.733 68.2341 138.401 68.2341H224.489C225.161 68.2341 225.702 68.7787 225.702 69.447V87.4705C225.702 88.1389 225.161 88.6834 224.489 88.6834Z" fill="#002663"/>
<path d="M224.135 88.3299H138.047C137.375 88.3299 136.834 87.7853 136.834 87.117V69.0935C136.834 68.4216 137.379 67.8806 138.047 67.8806H224.135C224.807 67.8806 225.348 68.4252 225.348 69.0935V87.117C225.348 87.7853 224.807 88.3299 224.135 88.3299Z" fill="#DCE6FF"/>
<g opacity="0.27">
<path d="M153.579 78.4607C153.579 79.4437 153.317 80.3666 152.85 81.1587C151.913 82.7676 150.17 83.8532 148.18 83.8532C146.186 83.8532 144.45 82.7676 143.517 81.1587C143.053 80.3631 142.788 79.4437 142.788 78.4607C142.788 75.4797 145.203 73.061 148.18 73.061C151.164 73.061 153.579 75.4797 153.579 78.4607Z" fill="#002663"/>
<path d="M152.85 81.1619C151.913 82.7709 150.17 83.8564 148.18 83.8564C146.186 83.8564 144.45 82.7709 143.517 81.1619C144.446 79.5459 146.189 78.4639 148.18 78.4639C150.181 78.4603 151.924 79.5459 152.85 81.1619Z" fill="#002663"/>
<path d="M148.184 78.4576C149.369 78.4576 150.33 77.4966 150.33 76.3112C150.33 75.1258 149.369 74.1648 148.184 74.1648C146.998 74.1648 146.038 75.1258 146.038 76.3112C146.038 77.4966 146.998 78.4576 148.184 78.4576Z" fill="#002663"/>
</g>
<path d="M153.225 78.1067C153.225 79.0897 152.963 80.0126 152.497 80.8047C151.56 82.4136 149.817 83.4992 147.826 83.4992C145.832 83.4992 144.096 82.4136 143.163 80.8047C142.7 80.0091 142.435 79.0897 142.435 78.1067C142.435 75.1257 144.85 72.707 147.826 72.707C150.81 72.707 153.225 75.1257 153.225 78.1067Z" fill="#E8E8E8"/>
<path d="M152.497 80.8084C151.56 82.4173 149.817 83.5029 147.826 83.5029C145.832 83.5029 144.096 82.4173 143.163 80.8084C144.093 79.1924 145.836 78.1104 147.826 78.1104C149.827 78.1068 151.57 79.1924 152.497 80.8084Z" fill="white"/>
<path d="M147.83 78.1036C149.015 78.1036 149.976 77.1426 149.976 75.9572C149.976 74.7718 149.015 73.8108 147.83 73.8108C146.645 73.8108 145.684 74.7718 145.684 75.9572C145.684 77.1426 146.645 78.1036 147.83 78.1036Z" fill="white"/>
<path d="M160.013 75.1472H210.538" stroke="#00AEEF" stroke-width="3" stroke-miterlimit="10" stroke-linecap="round"/>
<path d="M160.013 80.2463H186.207" stroke="#00AEEF" stroke-width="3" stroke-miterlimit="10" stroke-linecap="round"/>
<path d="M192.857 80.2463H205.953" stroke="#00AEEF" stroke-width="3" stroke-miterlimit="10" stroke-linecap="round"/>
<path opacity="0.27" d="M225.055 53.0501H169.523C168.915 53.0501 168.42 52.5551 168.42 51.9469V2.01708C168.42 1.40887 168.915 0.913818 169.523 0.913818H225.055C225.663 0.913818 226.158 1.40887 226.158 2.01708V51.9504C226.158 52.5551 225.663 53.0501 225.055 53.0501Z" fill="#002663"/>
<path d="M224.701 52.6966H169.17C168.562 52.6966 168.067 52.2016 168.067 51.5933V1.66357C168.067 1.05536 168.562 0.560303 169.17 0.560303H224.701C225.309 0.560303 225.804 1.05536 225.804 1.66357V51.5969C225.804 52.2016 225.309 52.6966 224.701 52.6966Z" fill="#DCE6FF"/>
<path d="M174.678 7.19751H210.538" stroke="#00AEEF" stroke-width="3" stroke-miterlimit="10" stroke-linecap="round"/>
<path d="M175.523 17.5831C176.585 17.5831 177.446 16.7219 177.446 15.6595C177.446 14.5971 176.585 13.7358 175.523 13.7358C174.461 13.7358 173.6 14.5971 173.6 15.6595C173.6 16.7219 174.461 17.5831 175.523 17.5831Z" fill="white"/>
<path d="M174.243 14.641L175.654 17.2506C175.654 17.2506 176.566 15.228 179.836 13.8489C179.836 13.8489 177.662 13.8489 175.643 15.4507L174.243 14.641Z" fill="#00AEEF"/>
<path d="M175.523 29.9596C176.585 29.9596 177.446 29.0983 177.446 28.0359C177.446 26.9735 176.585 26.1123 175.523 26.1123C174.461 26.1123 173.6 26.9735 173.6 28.0359C173.6 29.0983 174.461 29.9596 175.523 29.9596Z" fill="white"/>
<path d="M174.243 27.0174L175.654 29.6271C175.654 29.6271 176.566 27.6044 179.836 26.2253C179.836 26.2253 177.662 26.2253 175.643 27.8272L174.243 27.0174Z" fill="#00AEEF"/>
<path d="M175.523 42.3319C176.585 42.3319 177.446 41.4707 177.446 40.4083C177.446 39.3459 176.585 38.4846 175.523 38.4846C174.461 38.4846 173.6 39.3459 173.6 40.4083C173.6 41.4707 174.461 42.3319 175.523 42.3319Z" fill="white"/>
<path d="M174.243 39.3902L175.654 41.9999C175.654 41.9999 176.566 39.9772 179.836 38.5981C179.836 38.5981 177.662 38.5981 175.643 40.2L174.243 39.3902Z" fill="#00AEEF"/>
<path d="M183.513 15.6589H217.552" stroke="#00AEEF" stroke-miterlimit="10" stroke-linecap="round"/>
<path d="M173.596 21.3452H217.552" stroke="#00AEEF" stroke-miterlimit="10" stroke-linecap="round"/>
<path d="M183.513 28.0356H217.552" stroke="#00AEEF" stroke-miterlimit="10" stroke-linecap="round"/>
<path d="M173.596 33.7188H217.552" stroke="#00AEEF" stroke-miterlimit="10" stroke-linecap="round"/>
<path d="M183.513 40.4084H217.552" stroke="#00AEEF" stroke-miterlimit="10" stroke-linecap="round"/>
<path d="M173.596 46.0947H217.552" stroke="#00AEEF" stroke-miterlimit="10" stroke-linecap="round"/>
<path d="M367.47 163.342C367.47 163.342 372.981 190.577 359.048 212.306C345.119 234.032 341.594 235.687 341.594 235.687" stroke="#FFD19F" stroke-miterlimit="10"/>
<path d="M368.276 167.319C368.276 167.319 367.413 160.94 360.144 162.998C360.148 163.002 362.785 168.851 368.276 167.319Z" fill="#FFD19F"/>
<path d="M367.859 167.27C367.859 167.27 368.018 160.834 375.467 162.086C375.47 162.086 373.487 168.189 367.859 167.27ZM368.891 175.767C368.891 175.767 368.191 169.367 360.873 171.241C360.873 171.241 363.362 177.157 368.891 175.767Z" fill="#FFD19F"/>
<path d="M368.474 175.707C368.474 175.707 368.796 169.275 376.213 170.721C376.213 170.721 374.078 176.771 368.474 175.707ZM368.202 185.852C368.202 185.852 368.428 179.416 360.915 180.223C360.915 180.223 362.531 186.436 368.202 185.852Z" fill="#FFD19F"/>
<path d="M367.798 185.732C367.798 185.732 369.039 179.413 376.174 181.906C376.174 181.909 373.19 187.588 367.798 185.732ZM366.338 196.287C366.338 196.287 367.544 189.961 359.996 189.611C359.996 189.611 360.643 195.993 366.338 196.287Z" fill="#FFD19F"/>
<path d="M365.956 196.107C365.956 196.107 368.148 190.053 374.816 193.603C374.816 193.603 371.001 198.762 365.956 196.107ZM367.593 163.999C367.593 163.999 364.037 160.968 365.444 156.135C365.447 156.135 371.942 158.737 367.593 163.999Z" fill="#FFD19F"/>
<path d="M41.6533 165.753C41.6533 165.753 36.1415 192.988 50.0747 214.717C64.0043 236.443 67.5292 238.098 67.5292 238.098" stroke="#ABBDFF" stroke-miterlimit="10" stroke-linecap="round"/>
<path d="M118.387 262.384L99.1964 260.93L70.8456 258.784L49.389 257.161C49.389 257.161 38.4786 249.144 41.802 232.26C42.5762 228.32 44.1318 223.904 46.7693 218.999C60.7414 193.034 51.482 184.557 64.7859 175.342C73.0235 169.635 72.8008 160.958 74.0205 153.949C74.7735 149.642 76.0746 145.957 80.2181 143.991C91.1144 138.822 106.441 168.995 92.1644 191.329C79.0797 211.8 100.254 220.035 96.5872 236.05C96.2514 237.518 95.7069 239.052 94.9114 240.661C89.8169 250.962 96.9585 256.461 104.691 259.35C110.807 261.637 117.287 262.288 118.387 262.384Z" fill="#ABBDFF"/>
<path d="M105.005 260.244L99.1962 260.93L76.184 263.664L70.8454 258.784L41.8018 232.26C42.576 228.32 44.1316 223.904 46.7691 218.999C60.7411 193.034 51.4818 184.557 64.7857 175.342C73.0233 169.635 72.8006 160.958 74.0203 153.949C84.4074 158.56 94.3668 164.748 86.1539 169.048C71.4606 176.736 67.0944 186.241 72.1218 199.724C77.1421 213.207 66.8787 217.401 73.7976 231.248C80.7235 245.096 96.0497 234.494 96.0497 234.494L96.587 236.05L104.69 259.35L105.005 260.244Z" fill="#8FABF9"/>
<path d="M390.019 251.553L359.851 262.996L354.777 264.919L353.572 265.375C353.572 265.375 352.596 265.273 350.779 264.534C347.859 263.349 342.775 260.513 336.114 253.809C333.059 250.732 332.338 246.988 332.667 242.875C333.487 232.447 341.021 219.671 334.229 209.512C324.758 195.354 332.585 178.794 339.377 172.326C339.982 171.754 340.6 171.223 341.23 170.753C347.678 165.813 355.082 166.23 355.835 180.481C356.156 186.478 356.178 192.139 357.175 197.21C357.189 197.256 357.196 197.305 357.21 197.351C357.312 197.864 357.418 198.366 357.546 198.865C357.553 198.886 357.56 198.911 357.56 198.932C359.412 206.305 363.75 212.295 374.816 216.05C381.251 218.239 384.907 221.333 386.925 224.491C390.949 230.814 388.407 237.384 388.407 237.384L390.019 251.553Z" fill="#ABBDFF"/>
<path d="M341.229 170.756C347.678 165.816 355.081 166.234 355.834 180.484C356.156 186.481 356.177 192.143 357.174 197.213C354.427 185.816 349.085 175.159 341.229 170.756ZM359.854 262.996L361.35 252.575L386.925 224.494C384.906 221.337 381.251 218.239 374.816 216.054C363.75 212.298 359.409 206.305 357.56 198.935C360.441 212.687 358.38 227.507 349.973 231.16C343.694 233.893 336.322 239.777 332.667 242.879C332.338 246.991 333.055 250.736 336.114 253.812C342.778 260.517 347.858 263.353 350.779 264.537L354.777 264.923L359.854 262.996Z" fill="#8FABF9"/>
<path d="M292.44 74.9418C292.03 76.6321 290.683 77.5055 290.683 77.5055C290.683 77.5055 291.68 80.1257 289.619 82.0034C287.558 83.8811 283.743 82.5763 283.743 82.5763L268.438 79.8782C268.438 79.8782 264.878 77.2261 265.744 73.9057C265.925 73.2268 266.115 72.6858 266.303 72.2615C266.967 70.7798 267.607 70.7126 267.717 70.7126C267.547 70.7056 266.048 70.5783 265.921 68.4177C265.787 66.1369 268.661 65.9601 269.386 66.586C269.386 66.586 269.216 63.3682 272.684 64.7331C272.684 64.7331 273.222 62.8696 275.94 62.8802C276.669 62.8872 277.273 63.0216 277.779 63.2232C277.786 63.2302 277.786 63.2302 277.793 63.2302C279.158 63.7677 279.73 64.7649 279.73 64.7649C279.73 64.7649 281.643 62.6645 284.401 64.5421C287.155 66.4198 286.292 69.0118 286.292 69.0118C286.292 69.0118 290.453 68.0818 292.087 71.7982C292.635 73.05 292.656 74.1002 292.44 74.9418Z" fill="#8B5E3C"/>
<path d="M289.619 82.0042C287.558 83.8818 283.743 82.577 283.743 82.577L268.438 79.879C268.438 79.879 264.878 77.2269 265.744 73.9065C265.925 73.2276 266.115 72.6865 266.303 72.2622H266.31C266.31 72.2622 265.557 74.6597 267.717 74.5854C269.884 74.5182 271.663 72.5663 271.663 72.5663C271.663 72.5663 276.259 80.6993 280.749 75.5154C280.749 75.5154 283.655 76.3181 285.461 73.8676C285.461 73.8676 284.733 78.9843 290.683 77.5098C290.683 77.5062 291.68 80.1265 289.619 82.0042Z" fill="#754C29"/>
<path d="M181.349 139.151C178.556 141.548 174.604 143.628 169.834 145.141C155.297 149.752 88.4484 165.251 73.0267 163.585C70.4034 163.302 68.1867 162.447 66.3836 161.195C58.093 155.431 58.4289 141.223 67.0377 134.961C67.0448 134.953 67.0518 134.946 67.0589 134.939C67.0978 134.911 67.1402 134.879 67.1791 134.851C68.2079 134.115 69.0564 133.288 69.7564 132.386C70.209 131.799 70.5979 131.188 70.9408 130.54C74.2394 124.285 72.804 115.395 76.6294 107.725C77.5521 105.869 78.7824 104.076 80.4724 102.421C88.664 94.3626 103.47 96.2614 109.488 90.3632C110.51 89.366 111.277 88.1426 111.715 86.6079C111.782 86.3639 111.857 86.1305 111.931 85.8936V85.8865C115.236 75.2287 121.858 72.4281 128.197 74.6841C128.204 74.6841 128.204 74.6841 128.212 74.6841C128.904 74.9281 129.583 75.2287 130.266 75.5929C132.797 76.9472 133.953 71.9118 141.271 79.7797C141.865 80.4126 142.403 81.0845 142.915 81.7776C142.915 81.7776 142.915 81.7776 142.915 81.7846C147.695 88.2734 149.605 96.7636 164.347 98.8428C175.594 100.438 175.823 108.74 177.238 115.491C177.482 116.661 177.761 117.779 178.146 118.815C178.146 118.822 178.146 118.822 178.146 118.829C178.751 120.473 179.606 121.877 180.967 122.895C187.925 128.097 187.07 134.271 181.349 139.151Z" fill="#603913"/>
<path d="M120.664 92.8983C120.664 92.8983 120.101 102.053 108.201 105.034C96.3008 108.015 88.1904 117.754 87.1086 127.382C86.0268 137.011 165.532 121.251 165.532 121.251C165.532 121.251 157.266 112.4 149.573 109.613C141.88 106.827 134.869 96.7067 133.904 88.6408C132.939 80.575 120.664 92.8983 120.664 92.8983Z" fill="#3C2415"/>
<path d="M345.09 178.985C345.09 178.985 334.42 225.884 364.291 255.715" stroke="#4A76D8" stroke-miterlimit="10" stroke-linecap="round"/>
<path d="M409.029 201.839C406.823 203.656 404.984 205.102 403.51 206.344V206.351C397.539 211.372 397.38 213.115 401.937 222.581C401.937 222.588 401.937 222.588 401.937 222.596C402.46 223.681 403.047 224.869 403.694 226.178C417.567 254.237 390.429 258.565 390.429 258.565H349.849C345.097 238.377 375.424 233.024 370.507 222.468C365.585 211.913 371.267 201.107 380.972 194.947C390.683 188.78 391.345 170.746 402.092 158.277C403.963 156.11 405.762 155.707 407.388 156.587C415.12 160.738 419.048 193.599 409.029 201.839Z" fill="#FFDFB8"/>
<path d="M403.51 175.237C403.51 175.237 380.728 218.37 373.798 257.38" stroke="#DDA45F" stroke-miterlimit="10" stroke-linecap="round"/>
<path d="M84.0542 159.126C84.0542 159.126 59.8364 218.013 80.7768 262.398" stroke="#4A76D8" stroke-miterlimit="10" stroke-linecap="round"/>
<path d="M32.6981 258.558C32.6981 258.558 9.33228 245.156 14.5259 224.675C19.7194 204.197 8.46964 201.503 2.84474 188.783C-2.78016 176.064 -0.61647 160.943 14.9607 168.719C30.5379 176.495 26.6418 208.288 40.4902 207.539C54.335 206.789 64.6267 212.061 60.5645 228.685C56.5022 245.308 82.5762 242.705 80.7802 258.554L32.6981 258.558Z" fill="#FFDFB8"/>
<path d="M11.2095 180.831C11.2095 180.831 36.6187 238.484 57.3754 258.562" stroke="#DDA45F" stroke-miterlimit="10" stroke-linecap="round"/>
<path d="M210.729 103.677C210.729 103.677 207.498 104.101 206.826 105.798C207.72 102.892 209.029 99.7728 210.506 99.6172C213.313 99.3273 210.987 102.51 210.729 103.677Z" fill="#E5C2A8"/>
<path d="M207.568 98.0931L206.851 96.9792C206.639 96.6503 206.207 96.5513 205.875 96.7494L205.684 96.8625C205.316 97.0818 205.217 97.5662 205.468 97.9092L206.267 99.0054C206.518 99.3484 207.013 99.4014 207.332 99.1185L207.438 99.0231C207.706 98.7862 207.759 98.3936 207.568 98.0931Z" fill="#B5C2F4"/>
<path d="M219.939 118.376C219.953 118.584 219.723 118.719 219.554 118.606L219.317 118.45L217.128 117.004C217.047 116.951 216.98 116.884 216.927 116.802L205.638 99.4612C205.43 99.1394 205.525 98.701 205.854 98.4923L207.356 97.5553C207.678 97.3608 208.102 97.4492 208.304 97.771L219.593 115.098C219.66 115.2 219.695 115.314 219.706 115.427L219.907 118.012L219.939 118.376Z" fill="#4361F7"/>
<path d="M213.731 122.389V122.485C213.151 134.097 210.641 154.426 200.586 167.938C200.579 167.938 200.579 167.938 200.572 167.945C199.769 169.034 198.917 170.066 198.008 171.049C180.515 189.968 154.038 168.45 154.038 168.45L155.587 159.988L158.535 143.86L175.792 143.146L176.955 143.966L182.166 147.637L182.173 147.644C182.173 147.644 182.894 147.258 184.079 146.392C188.434 143.203 200.985 131.898 205.514 110.868C205.521 110.833 205.528 110.794 205.535 110.762C205.55 110.716 205.564 110.656 205.574 110.575L210.945 112.474L213.84 113.496C213.84 113.496 213.84 113.549 213.847 113.658C213.872 114.397 213.96 117.661 213.731 122.389Z" fill="#F4D1B3"/>
<path d="M161.109 162.655C161.109 162.655 172.808 160.357 179.493 145.838L175.792 143.143L158.708 158.903L161.109 162.655Z" fill="#E0BEA4"/>
<path d="M200.575 167.945C199.769 169.031 198.914 170.063 198.008 171.046C180.515 189.964 154.038 168.447 154.038 168.447L155.583 159.985C157.16 159.214 158.793 159.013 160.466 159.61C160.466 159.607 177.308 185.367 200.575 167.945Z" fill="#E0BEA4"/>
<path d="M177.086 280.17L175.746 280.347H147.706C147.183 279.187 146.674 278.042 146.179 276.903C145.974 276.44 145.776 275.98 145.578 275.524C145.528 275.418 145.482 275.315 145.44 275.209C145.323 274.926 145.203 274.647 145.083 274.371C144.846 273.809 144.609 273.257 144.376 272.706C144.22 272.348 144.072 271.988 143.923 271.631C143.736 271.174 143.541 270.715 143.354 270.262C143.333 270.213 143.312 270.156 143.294 270.107C143.096 269.622 142.898 269.141 142.696 268.667C142.59 268.402 142.488 268.137 142.382 267.879C141.859 266.577 141.357 265.312 140.876 264.095C140.727 263.713 140.582 263.335 140.434 262.964C139.932 261.666 139.458 260.425 139.016 259.251C138.921 259.007 138.836 258.766 138.747 258.529C138.376 257.543 138.03 256.599 137.711 255.715C137.064 253.95 136.52 252.415 136.085 251.157C136.004 250.913 135.919 250.676 135.841 250.456C135.834 250.449 135.834 250.439 135.831 250.435C135.753 250.209 135.682 249.99 135.611 249.785C135.081 248.25 134.805 247.391 134.805 247.391L134.537 249.731L131.033 280.351H101.36C98.6801 272.737 94.3598 259.463 91.5456 245.729C91.5456 245.707 91.5385 245.686 91.535 245.661C91.4466 245.226 91.3582 244.788 91.2698 244.35C91.0754 243.366 90.9057 242.398 90.7572 241.443C88.5829 227.433 91.1603 216.842 92.8962 211.754C93.6351 209.579 94.2255 208.409 94.2255 208.409C94.4517 208.189 94.678 207.967 94.9043 207.747C96.6084 206.142 98.4114 204.692 100.299 203.387C126.981 184.925 169.64 195.873 169.64 195.873C182.053 236.782 177.086 280.17 177.086 280.17Z" fill="#4361F7"/>
<path d="M163.637 199.724C163.637 199.724 147.887 213.373 115.739 211.955C105.893 211.521 98.461 211.531 92.8962 211.75C93.6351 209.576 94.2256 208.405 94.2256 208.405C96.1276 206.531 98.157 204.862 100.299 203.384L163.637 199.724Z" fill="#3858CE"/>
<path d="M180.519 144.331C180.519 144.331 180.519 144.331 180.511 144.338C180.43 144.459 179.005 146.534 176.456 149.176V149.183C173.992 151.736 170.478 154.833 166.115 157.199C164.365 158.147 162.481 158.981 160.465 159.611C159.645 159.876 158.804 160.102 157.938 160.29C157.938 160.29 165.62 181.216 169.636 195.877C169.636 195.877 160.511 203.183 145.613 206.641C145.602 206.648 145.592 206.648 145.574 206.652C141.155 207.673 136.223 208.356 130.867 208.412C124.952 208.473 119.956 208.335 115.731 208.144H115.724C103.22 207.564 97.4002 206.468 94.2218 208.412L97.5098 169.911L98.2381 161.354C98.2381 161.354 95.4734 161.45 91.4924 161.347C87.2499 161.248 81.6285 160.933 76.5057 160.06C74.6814 159.756 72.9101 159.377 71.2944 158.907C71.2944 158.907 71.5419 156.326 72.2985 152.464C73.7975 144.816 77.3082 132.156 84.8882 124.646C88.254 121.315 92.1076 118.794 95.9648 116.884C97.3259 116.205 98.6835 115.604 100.023 115.074C100.031 115.074 100.031 115.074 100.031 115.074C105.493 112.909 110.587 111.88 113.854 111.4C116.127 111.064 117.51 110.993 117.51 110.993L139.79 109.395C139.79 109.395 141.314 109.73 143.623 110.37C148.724 111.781 157.665 114.653 162.548 118.557C164.347 119.996 166.232 121.877 168.088 124.002C168.088 124.002 168.095 124.009 168.106 124.023C171.521 127.934 174.819 132.68 177.252 137.065C178.715 139.702 179.857 142.213 180.519 144.331Z" fill="#FBB040"/>
<path d="M221.625 103.949C219.571 105.095 216.927 105.035 214.311 105.728C214.311 105.728 215.463 106.032 216.485 106.697C217.729 107.499 218.772 108.832 217.291 110.784C216.004 112.482 214.841 113.309 213.844 113.652C213.002 113.956 212.274 113.9 211.716 113.726C211.238 113.585 210.881 113.362 210.644 113.196C209.842 112.609 205.507 110.866 205.507 110.866C205.507 110.866 205.514 110.83 205.529 110.76C205.543 110.714 205.557 110.653 205.567 110.572C205.716 109.865 206.14 107.98 206.759 105.968C206.773 105.908 206.794 105.855 206.819 105.798C207.491 104.101 210.722 103.677 210.722 103.677L210.736 103.67C211.058 103.617 216.29 102.665 222.258 102.216C222.265 102.213 223.619 102.839 221.625 103.949Z" fill="#F4D1B3"/>
<path d="M180.519 144.331C180.519 144.331 171.768 157.274 157.941 160.286L155.664 153.638C170.676 148.016 177.252 137.065 177.252 137.065C178.716 139.703 179.858 142.213 180.519 144.331ZM100.992 154.349C100.992 154.349 101.208 161.899 100.317 167.539C100.169 168.472 99.1362 169.25 97.5134 169.912L98.4291 161.418C98.4291 161.418 88.4804 162.532 71.2981 158.911C71.2981 158.911 71.5456 156.329 72.3022 152.468C74.0593 152.892 87.4622 156.015 100.992 154.349Z" fill="#FFC880"/>
<path opacity="0.53" d="M180.518 144.331C180.518 144.331 180.518 144.331 180.511 144.338C180.43 144.458 179.005 146.534 176.456 149.175C177.266 138.864 168.434 124.575 168.105 124.023C171.521 127.934 174.819 132.679 177.252 137.064C178.715 139.702 179.857 142.213 180.518 144.331ZM169.64 195.873C169.64 195.873 160.515 203.179 145.616 206.637C145.864 206.57 146.136 206.506 146.423 206.439C163.615 202.45 153.384 144.741 153.158 143.464C156.279 154.034 160.296 159.38 160.465 159.607C159.645 159.872 158.804 160.098 157.938 160.286C157.941 160.286 165.624 181.212 169.64 195.873ZM109.534 200.191C109.534 200.191 109.7 206.145 115.728 208.136C106.956 207.73 101.48 207.072 97.8879 207.38H97.8703C96.3465 207.517 95.1656 207.825 94.2252 208.405L94.8757 200.813L97.5132 169.904L98.2415 161.347C98.2415 161.347 95.4768 161.442 91.4958 161.339L91.9802 161.18C91.9802 161.18 103.025 156.12 105.673 137.598C105.054 142.421 102.71 163.677 108.116 180.678L133.331 163.348C133.165 163.613 127.791 169.904 123.714 181.209C119.97 191.612 113.787 198.239 109.534 200.191Z" fill="#DD973A"/>
<path d="M135.435 161.354C132.246 164.148 129.255 167.91 126.274 171.924C126.267 171.931 126.267 171.938 126.267 171.938C125.412 173.091 124.563 174.261 123.704 175.431C123.442 175.796 123.174 176.16 122.908 176.521C120.437 179.894 117.92 183.253 115.268 186.181C114.671 186.835 113.996 187.486 113.257 188.119C113.257 188.119 113.257 188.119 113.25 188.119C105.942 194.374 92.2986 198.897 82.7246 192.783C82.6892 192.769 82.6574 192.744 82.622 192.723C82.3675 192.553 82.1023 192.366 81.8478 192.185C81.8266 192.171 81.8124 192.15 81.7948 192.147C81.7417 192.111 81.6922 192.079 81.6392 192.04C81.0947 191.63 80.5538 191.178 80.0376 190.679C79.4189 190.085 78.8462 189.459 78.3229 188.794C75.24 184.905 73.6385 179.869 72.8359 175.053C71.4748 166.807 72.4718 159.218 72.4718 159.218C72.9844 159.324 73.5077 159.434 74.0451 159.533C77.0078 160.106 80.2427 160.597 83.711 160.94C88.3141 161.393 94.5153 161.499 98.8886 161.404C99.5957 161.39 100.25 161.368 100.84 161.351L100.572 164.473V164.48L100.317 167.528C103.587 165.643 106.691 163.907 109.58 162.323C122.718 155.113 131.496 151.107 131.779 150.979C131.779 150.979 131.779 150.979 131.786 150.972L134.409 158.437L135.424 161.326L135.435 161.354Z" fill="#F4D1B3"/>
<path d="M139.79 109.391C139.79 109.391 141.314 109.727 143.623 110.367C140.296 120.385 132.525 126.594 125.903 123.405C119.285 120.212 113.851 111.4 113.851 111.4C116.124 111.064 117.506 110.993 117.506 110.993L139.79 109.391Z" fill="#FFC880"/>
<path d="M139.79 109.387C138.631 112.025 136.159 115.363 134.233 117.764C132.483 119.942 129.389 120.519 126.996 119.09C126.631 118.871 126.271 118.641 125.91 118.397C121.47 115.438 117.513 110.986 117.513 110.986C120.798 110.628 123.23 107.28 124.294 105.034C126.083 101.265 125.2 97.513 125.2 97.513C125.2 97.513 125.267 97.3291 125.38 97.0215C126.278 94.7265 130.156 85.614 131.878 96.095C132.083 97.3433 132.33 98.4748 132.613 99.4967C134.257 105.494 137.015 107.916 138.595 108.846C139.317 109.278 139.79 109.387 139.79 109.387Z" fill="#F4D1B3"/>
<path d="M154.399 280.347H147.706C147.183 279.187 146.674 278.042 146.179 276.903C145.974 276.44 145.776 275.98 145.578 275.524C145.528 275.418 145.482 275.315 145.44 275.209C145.32 274.926 145.196 274.651 145.083 274.371C144.839 273.812 144.609 273.257 144.376 272.706C144.22 272.349 144.072 271.988 143.923 271.631C143.729 271.175 143.541 270.715 143.354 270.262C143.333 270.213 143.311 270.156 143.294 270.107C143.089 269.622 142.891 269.141 142.696 268.667C142.59 268.402 142.488 268.137 142.382 267.879C141.851 266.578 141.349 265.312 140.875 264.095C140.727 263.713 140.582 263.335 140.434 262.964C139.924 261.666 139.458 260.425 139.016 259.251C138.92 259.007 138.836 258.766 138.747 258.529C138.372 257.536 138.029 256.599 137.711 255.715C137.064 253.95 136.52 252.416 136.085 251.157C136.004 250.913 135.919 250.676 135.841 250.457C135.834 250.449 135.834 250.439 135.83 250.435C135.753 250.209 135.682 249.99 135.611 249.785C135.081 248.25 134.805 247.391 134.805 247.391L134.536 249.732L134.056 244.442V244.435L133.999 243.823L134.597 241.744C134.604 241.736 134.604 241.733 134.604 241.726L137.368 232.122C137.457 232.447 141.169 245.439 154.399 280.347Z" fill="#3858CE"/>
<path d="M138.606 224.678L137.365 232.115L134.805 247.387L134.537 249.728L131.033 280.347H127.713C128.601 275.216 129.742 267.292 131.581 257.352C132.507 252.338 133.331 248.066 134.059 244.435C134.247 243.487 134.43 242.582 134.604 241.719C137.347 228.282 138.517 224.926 138.606 224.678Z" fill="#8FA7FF"/>
<path opacity="0.28" d="M95.9649 116.88C90.5203 120.395 78.323 130.848 76.52 159.982C76.5129 160.01 76.5129 160.031 76.5093 160.06C74.6851 159.756 72.9138 159.377 71.2981 158.907C71.2981 158.907 71.5456 156.326 72.3022 152.464C73.8012 144.816 77.3119 132.156 84.8919 124.646C88.2541 121.311 92.1077 118.79 95.9649 116.88Z" fill="#FFF5E9"/>
<path d="M113.246 188.123C105.224 194.986 89.5658 199.771 80.0378 190.676C75.8129 186.641 73.773 180.693 72.8396 175.05C72.8396 175.05 77.5594 203.441 113.246 188.123Z" fill="#E0BEA4"/>
<path d="M78.3231 188.787C75.2402 184.904 73.6351 179.865 72.8396 175.049C71.4784 166.806 72.4754 159.221 72.4754 159.221C72.9881 159.328 74.9008 159.77 75.4346 159.869C75.1942 161.573 71.3901 179.391 78.3231 188.787ZM81.8514 192.181C81.8302 192.167 81.8161 192.157 81.7949 192.143C81.7454 192.111 81.6959 192.075 81.6464 192.036C81.7136 192.09 81.7807 192.132 81.8514 192.181ZM82.6257 192.722C82.3641 192.553 82.106 192.369 81.8479 192.181C82.1343 192.372 82.3959 192.553 82.6257 192.722Z" fill="#F7E7DA"/>
<path d="M132.61 99.4965C132.61 99.4965 129.891 103.701 124.291 105.038C126.08 101.268 125.196 97.5128 125.196 97.5128C125.196 97.5128 125.263 97.3324 125.376 97.0213L130.75 95.7341L132.61 99.4965Z" fill="#E0BEA4"/>
<path d="M132.203 82.8774C132.203 82.8774 132.316 85.1475 128.088 85.7664C123.86 86.3852 122.53 89.3201 122.693 91.12C122.693 91.12 122.746 89.3449 120.748 89.1327C118.751 88.917 118.351 96.0104 122.795 95.1865C122.795 95.1865 124.369 100.469 129.262 100.282C134.155 100.095 135.824 96.3605 136.212 92.9022C136.676 88.7685 134.837 82.6829 132.203 82.8774Z" fill="#F4D1B3"/>
<path d="M128.229 91.3919C128.542 91.3919 128.795 91.0499 128.795 90.6281C128.795 90.2062 128.542 89.8643 128.229 89.8643C127.917 89.8643 127.664 90.2062 127.664 90.6281C127.664 91.0499 127.917 91.3919 128.229 91.3919Z" fill="black"/>
<path d="M134.469 91.2329C134.782 91.2329 135.035 90.891 135.035 90.4691C135.035 90.0473 134.782 89.7053 134.469 89.7053C134.157 89.7053 133.904 90.0473 133.904 90.4691C133.904 90.891 134.157 91.2329 134.469 91.2329Z" fill="black"/>
<path d="M129.658 96.5654C129.658 96.5654 131.351 97.9869 132.939 96.5654" stroke="#EF4136" stroke-miterlimit="10" stroke-linecap="round"/>
<path d="M131.16 89.4966C131.16 89.4966 132.295 93.3439 132.316 94.0087C132.338 94.6734 130.192 94.0511 130.192 94.0511" stroke="#C1A18B" stroke-width="0.75" stroke-miterlimit="10" stroke-linecap="round"/>
<path d="M134.469 92.8984C135.877 92.8984 137.019 91.7569 137.019 90.3488C137.019 88.9408 135.877 87.7993 134.469 87.7993C133.062 87.7993 131.92 88.9408 131.92 90.3488C131.92 91.7569 133.062 92.8984 134.469 92.8984Z" stroke="white" stroke-miterlimit="10"/>
<path d="M130.782 90.4692H131.92" stroke="white" stroke-miterlimit="10" stroke-linecap="round"/>
<path d="M123.92 87.7997C123.92 87.7997 123.17 89.4687 124.291 94.6138C124.291 94.6138 120.642 90.0628 121.855 85.9256C123.068 81.7883 123.068 81.7883 123.068 81.7883L126.614 82.4991L123.92 87.7997Z" fill="#603913"/>
<path d="M125.684 90.3486C125.684 90.3486 123.428 89.408 122.618 89.1287C119.132 87.9299 118.047 89.3055 118.047 89.3055" stroke="white" stroke-miterlimit="10" stroke-linecap="round"/>
<path opacity="0.28" d="M97.874 207.38C96.3503 207.518 95.1694 207.826 94.229 208.406L94.8795 200.813C94.8795 200.817 94.6745 207.359 97.874 207.38Z" fill="#FFF5E9"/>
<path d="M91.2698 244.346C91.3794 244.816 91.4678 245.255 91.535 245.658C91.4466 245.223 91.3582 244.788 91.2698 244.346ZM90.7572 241.439C88.5829 227.429 91.1603 216.839 92.8962 211.75C93.6351 209.576 94.2255 208.405 94.2255 208.405C94.4517 208.186 94.678 207.963 94.9043 207.744C96.2831 207.447 97.3579 207.284 97.8705 207.38C97.874 207.38 88.9364 226.598 90.7572 241.439Z" fill="#8FA7FF"/>
<path d="M102.972 212.783C102.972 212.783 102.325 221.828 92.8962 223.246" stroke="#294AA5" stroke-width="2" stroke-miterlimit="10" stroke-linecap="round"/>
<path d="M131.786 150.979C131.786 150.979 133.243 144.448 139.09 143.086C144.938 141.728 139.5 148.055 139.5 148.055C139.5 148.055 131.369 150.738 131.786 150.979Z" fill="#E0BEA4"/>
<path d="M108.282 278.282C94.8937 236.638 99.2069 220.375 99.2069 220.375" stroke="#294AA5" stroke-width="2" stroke-miterlimit="10" stroke-linecap="round"/>
<path d="M149.085 140.756L148.014 162.143C148.007 162.344 147.812 162.507 147.568 162.514L144.263 162.574L142.965 162.595L138.503 162.655C138.26 162.662 138.065 162.507 138.047 162.312L135.845 140.958C135.824 140.742 136.025 140.555 136.276 140.555L148.633 140.381C148.728 140.381 148.82 140.403 148.894 140.441C148.901 140.449 148.915 140.456 148.922 140.463C149.025 140.526 149.092 140.632 149.085 140.756Z" fill="#DBDBDB"/>
<path d="M149.085 140.757L148.014 162.143C148.007 162.344 147.812 162.507 147.568 162.514L144.263 162.574C144.167 162.514 144.1 162.419 144.093 162.313L141.887 140.958C141.859 140.742 142.06 140.555 142.325 140.555L148.922 140.459C149.025 140.527 149.092 140.633 149.085 140.757Z" fill="#EAEAEA"/>
<path d="M149.081 137.263V139.264C149.081 139.512 148.883 139.71 148.64 139.71L139.808 139.717H136.223C135.976 139.717 135.778 139.512 135.778 139.271V137.27C135.778 137.022 135.976 136.824 136.223 136.824H148.636C148.883 136.821 149.081 137.019 149.081 137.263Z" fill="#603C29"/>
<path d="M150.174 139.713V140.718C150.174 140.962 149.976 141.16 149.728 141.16L139.811 141.167H135.134C134.89 141.167 134.692 140.969 134.692 140.725V139.72C134.692 139.476 134.89 139.275 135.134 139.275H139.811L149.085 139.268H149.732C149.976 139.264 150.174 139.469 150.174 139.713Z" fill="#996441"/>
<path opacity="0.22" d="M139.808 139.271V141.163H135.131C134.887 141.163 134.689 140.965 134.689 140.721V139.717C134.689 139.473 134.887 139.271 135.131 139.271H135.778V137.27C135.778 137.022 135.976 136.824 136.223 136.824H139.808C139.808 136.821 139.808 138.002 139.808 139.271Z" fill="black"/>
<path d="M147.003 158.451C146.511 158.921 145.804 159.501 144.8 160.025C142.894 161.029 139.935 161.828 135.424 161.329C135.417 161.329 135.417 161.329 135.41 161.329C134.621 161.241 133.928 161.16 133.31 161.085C128.477 160.488 128.381 160.212 128.381 160.212L131.772 150.983C131.772 150.983 131.772 150.983 131.779 150.976C131.899 150.774 134.289 146.998 138.995 145.516C143.828 143.995 147.84 146.471 148.668 149.002C149.495 151.545 148.417 157.097 147.003 158.451Z" fill="#F4D1B3"/>
<path d="M143.938 145.278C143.938 145.278 148.926 145.862 149.792 147.432C150.846 149.338 148.661 149.893 146.957 149.893C145.253 149.893 143.938 145.278 143.938 145.278Z" fill="#F4D1B3"/>
<path d="M145.21 148.055C145.21 148.055 149.12 148.2 150.004 149.759C151.022 151.555 149.099 152.429 147.395 152.429C145.691 152.429 145.21 148.055 145.21 148.055Z" fill="#F4D1B3"/>
<path d="M144.354 150.176C144.354 150.176 147.833 151.131 149.134 152.372C150.435 153.613 149.092 156.36 147.381 156.36C145.67 156.36 144.354 150.176 144.354 150.176Z" fill="#F4D1B3"/>
<path d="M117.934 76.8196C117.934 76.8196 110.237 90.0199 92.5284 91.5262C80.4937 92.5482 67.2181 94.0581 63.8771 116.785C60.5361 139.511 48.4202 135.073 43.6155 142.411" stroke="#603913" stroke-width="0.75" stroke-miterlimit="10"/>
<path d="M100.844 161.35L100.575 164.476L100.646 163.642C83.6297 163.076 72.4753 159.221 72.4753 159.221C72.988 159.324 73.5147 159.437 74.0486 159.533C77.0113 160.109 80.2427 160.601 83.7145 160.94C88.3212 161.389 94.5153 161.495 98.8887 161.403C99.5957 161.396 100.25 161.371 100.844 161.35Z" fill="#E0BEA4"/>
<path d="M100.317 167.535C100.317 167.535 94.5507 171.431 92.5391 175.873M182.163 147.633C182.163 147.633 176.361 152.959 175.629 158.903" stroke="#231F20" stroke-miterlimit="10" stroke-linecap="round"/>
<path d="M141.325 80.3843C141.325 80.3843 149.315 95.3243 161.537 95.1157C173.759 94.9071 184.934 93.8604 187.752 101.488C190.573 109.115 188.067 117.177 200.077 118.839" stroke="#603913" stroke-width="0.75" stroke-miterlimit="10"/>
<path d="M149.573 149.264C149.573 149.264 147.102 148.189 143.34 148.266M149.131 152.372C149.131 152.372 146.455 150.979 143.103 151.895M148.19 156.148C148.19 156.148 146.069 154.95 142.884 155.943" stroke="#231F20" stroke-miterlimit="10" stroke-linecap="round"/>
<path d="M100.904 161.227C100.904 161.227 102.488 159.353 103.509 152.786C104.552 146.085 105.008 142.903 105.008 142.903M157.941 160.286C157.941 160.286 153.981 152.061 153.158 143.465" stroke="black" stroke-miterlimit="10" stroke-linecap="round"/>
<path d="M137.135 107.757C137.135 107.757 135.954 113.224 129.941 115.349C129.941 115.349 125.122 114.95 121.777 108.673" stroke="white" stroke-miterlimit="10" stroke-linecap="round"/>
<path d="M130.694 116.732C130.694 117.181 130.33 117.545 129.881 117.545C129.432 117.545 129.067 117.181 129.067 116.732C129.067 116.283 129.492 115.353 129.941 115.353C130.39 115.353 130.694 116.283 130.694 116.732Z" fill="#4361F7"/>
<path d="M139.79 109.387C138.631 112.025 136.159 115.363 134.233 117.764C132.483 119.942 129.389 120.519 126.996 119.09C126.631 118.871 126.271 118.641 125.91 118.397C133.218 122.824 138.588 108.846 138.588 108.846H138.592C139.317 109.278 139.79 109.387 139.79 109.387Z" fill="#E0BEA4"/>
<path d="M126.401 88.9661C126.401 88.9661 127.388 88.3544 128.795 88.6408M133.271 88.9661C133.271 88.9661 134.257 88.3544 135.664 88.6408" stroke="black" stroke-miterlimit="10" stroke-linecap="round"/>
<path d="M128.233 92.8984C129.641 92.8984 130.782 91.7569 130.782 90.3488C130.782 88.9408 129.641 87.7993 128.233 87.7993C126.825 87.7993 125.684 88.9408 125.684 90.3488C125.684 91.7569 126.825 92.8984 128.233 92.8984Z" stroke="white" stroke-miterlimit="10"/>
<path d="M121.501 95.8048C121.964 95.8048 122.339 95.4296 122.339 94.9667C122.339 94.5039 121.964 94.1287 121.501 94.1287C121.039 94.1287 120.664 94.5039 120.664 94.9667C120.664 95.4296 121.039 95.8048 121.501 95.8048Z" fill="white"/>
<path d="M208.374 103.27C208.346 103.546 208.24 103.687 208.152 103.754C208.039 103.807 207.982 103.694 207.971 103.673C207.643 102.92 206.303 100.978 205.751 100.208C205.744 100.193 205.737 100.179 205.723 100.169C205.723 100.169 205.723 100.162 205.716 100.162C205.567 99.9459 205.656 99.8186 205.688 99.7832C205.695 99.7761 205.702 99.769 205.702 99.769L205.857 99.6877C205.857 99.6877 206.038 99.6064 206.313 99.9777V99.9848C206.953 100.855 208.413 102.874 208.374 103.27ZM219.939 118.376C219.953 118.585 219.723 118.719 219.554 118.606L219.317 118.45L217.128 117.004C217.047 116.951 216.98 116.884 216.927 116.802C217.754 114.808 219.592 115.098 219.592 115.098C219.66 115.201 219.695 115.314 219.706 115.427L219.907 118.012L219.939 118.376Z" fill="#B5C2F4"/>
<path d="M219.938 118.376C219.952 118.584 219.723 118.718 219.553 118.605L219.317 118.45C219.317 118.45 219.236 117.995 219.91 118.012L219.938 118.376Z" fill="#231F20"/>
<path d="M340.194 279.619H294.897L289.032 255.934L288.569 254.056L287.402 279.619H244.065C246.476 263.324 248.961 238.554 248.102 208.865L264.493 199.728L269 197.217L313.593 201.616L324.712 202.712L332.815 203.511C332.815 203.511 333.246 206.574 333.904 211.697C334.484 216.195 335.237 222.281 336.025 229.275C336.029 229.3 336.036 229.332 336.036 229.357C336.128 230.195 336.227 231.05 336.322 231.913C336.435 232.946 336.548 234.003 336.665 235.067C336.665 235.067 336.665 235.092 336.669 235.149C338.147 248.936 339.617 265.216 340.194 279.619Z" fill="#FBB040"/>
<path opacity="0.53" d="M264.493 199.724L260.197 212.419C260.197 212.419 250.089 227.61 249.81 255.389C249.81 255.389 248.488 272.338 249.311 279.619H244.065C246.476 263.324 248.961 238.554 248.102 208.865L264.493 199.724Z" fill="#DD973A"/>
<path opacity="0.53" d="M333.904 211.69C328.194 213.915 318.472 216.549 303.715 217.104C277.255 218.091 253.395 211.471 253.395 211.471L313.589 201.613L332.808 203.504C332.812 203.504 333.246 206.567 333.904 211.69Z" fill="#DD973A"/>
<path opacity="0.28" d="M333.904 211.69C334.484 216.188 335.516 224.848 336.025 229.268C334.003 211.609 324.712 207.542 324.712 207.542V202.705L332.815 203.504C332.812 203.504 333.246 206.566 333.904 211.69Z" fill="#FFF5E9"/>
<path d="M261.077 183.603C260.639 189.257 255.626 193.143 242.382 192.885C226.999 192.588 217.556 183.797 211.776 173.79C203.966 160.279 202.856 144.554 202.856 144.554L235.276 144.826C235.279 144.826 262.149 169.628 261.077 183.603Z" fill="#F4D1B3"/>
<path d="M261.077 183.603C260.639 189.257 255.626 193.143 242.382 192.885C226.999 192.588 217.556 183.798 211.775 173.79C216.987 179.423 224.008 185.145 230.425 184.19C242.629 182.372 239.886 169.978 239.886 169.978L249.474 165.502L261.077 183.603Z" fill="#E0BEA4"/>
<path d="M347.229 146.962L345.659 148.044L343.266 149.695L340.066 151.898L334.509 155.728L333.257 156.587L322.884 155.728L320.275 155.512C320.275 155.512 320.296 155.583 320.332 155.728C320.469 156.216 320.83 157.517 321.357 159.402C321.357 159.412 321.36 159.416 321.36 159.426C321.396 159.561 321.438 159.699 321.477 159.844C322.039 161.881 322.764 164.526 323.581 167.528C323.941 168.84 324.316 170.219 324.701 171.644C325.366 174.105 326.066 176.7 326.766 179.324C327.127 180.693 327.491 182.072 327.855 183.44C328.544 186.064 329.22 188.663 329.845 191.124C330.206 192.549 330.556 193.928 330.878 195.24C331.62 198.235 332.242 200.873 332.674 202.917C332.72 203.122 332.762 203.324 332.801 203.515C332.801 203.515 330.446 205.099 325.932 207.033C325.536 207.203 325.126 207.372 324.698 207.549C317.362 210.537 305.214 214.084 288.965 214.017C276.587 213.971 266.992 213.225 260.186 212.422C251.91 211.446 247.763 210.378 247.763 210.378L247.547 207.033L247.275 202.917L246.777 195.24L246.508 191.124L246.002 183.44L245.734 179.324L245.228 171.644L244.959 167.528L244.482 160.211L234.498 159.847L227.611 159.596L221.191 159.359L215.764 159.158C215.551 155.3 215.785 151.018 216.474 146.608C217.648 139.112 220.158 131.247 224.114 124.451C224.942 123.026 225.833 121.65 226.791 120.335C228.894 117.439 231.313 114.829 234.056 112.658C235.322 111.65 236.658 110.738 238.069 109.932C238.931 109.437 239.812 108.97 240.717 108.542C240.731 108.531 240.752 108.528 240.77 108.517L240.773 108.514C247.576 105.257 255.205 103.701 260.045 102.994C263.04 102.555 264.963 102.439 264.963 102.439L290.284 101.127C290.284 101.127 292.762 101.028 296.612 101.219C296.612 101.219 305.419 101.06 314.792 103.648C314.792 103.648 314.795 103.648 314.806 103.648C314.809 103.652 314.816 103.652 314.827 103.652C315.106 103.729 315.382 103.811 315.661 103.892C319.303 104.956 322.994 106.449 326.253 108.542C328.085 109.716 329.778 111.074 331.253 112.658C331.32 112.725 331.38 112.796 331.447 112.87C333.218 114.819 334.944 117.485 336.531 120.335C337.28 121.682 337.998 123.079 338.67 124.451C340.038 127.244 341.212 129.967 342.103 132.135C342.891 134.066 343.45 135.551 343.708 136.251C343.818 136.537 343.874 136.693 343.874 136.693C345.041 140.052 345.815 142.365 346.314 143.931C347.077 146.283 347.229 146.962 347.229 146.962Z" fill="#4361F7"/>
<path d="M296.623 101.208C292.638 106.937 289.191 114.646 276.57 112.492C263.941 110.342 259.002 103.1 259.002 103.1C261.996 102.662 264.973 102.425 264.973 102.425L290.294 101.113C290.294 101.116 292.773 101.017 296.623 101.208Z" fill="white"/>
<path d="M290.294 101.117C288.428 104.327 286.214 106.24 283.888 107.255C283.877 107.259 283.874 107.259 283.863 107.266C275.209 111.032 264.973 102.428 264.973 102.428C265.546 102.273 266.084 102.089 266.582 101.866L266.593 101.863C268.088 101.205 269.262 100.261 270.174 99.207H270.178C272.985 95.9609 273.384 91.6221 273.43 90.9325C273.434 90.876 273.434 90.8406 273.434 90.8406C273.434 90.8406 280.112 78.6552 280.271 88.6836C280.285 89.511 281.088 89.3873 281.229 90.1192C282.732 98.1886 290.294 101.117 290.294 101.117Z" fill="#F4D1B3"/>
<path d="M281.541 90.6355C281.541 90.6355 281.463 91.0952 281.463 91.1023C281.371 91.4912 278.178 100.452 270.178 99.207C272.988 95.9609 273.384 91.6221 273.43 90.9325L276.223 90.4304L281.134 90.784L281.541 90.6355Z" fill="#E0BEA4"/>
<path d="M280.749 75.5144C282.301 78.3645 283.913 75.8539 283.913 75.8539L283.51 79.6305C286.027 77.3179 286.808 79.6729 286.83 82.3604C286.851 85.0478 283.771 85.854 283.771 85.854C283.881 87.7246 281.318 95.2954 273.667 92.516C266.016 89.7367 268.898 76.3136 268.898 76.3136C271.376 78.2302 272.133 75.0088 272.133 75.0088C272.133 75.0088 273.628 77.4416 276.602 77.6043C279.575 77.7669 280.749 75.5144 280.749 75.5144Z" fill="#F4D1B3"/>
<path d="M273.271 80.8052C273.271 82.8597 271.422 84.4686 269.308 84.0832C268.039 83.8498 266.992 82.8526 266.692 81.5973C266.589 81.1624 266.571 80.738 266.632 80.3349C266.716 79.7444 267.215 79.3024 267.812 79.3024H272.348C272.713 79.3024 273.041 79.5357 273.144 79.8858C273.225 80.1793 273.271 80.487 273.271 80.8052ZM281.442 81.6114C281.134 82.8632 280.091 83.8569 278.822 84.0832C276.711 84.4615 274.873 82.8526 274.873 80.8017C274.873 80.5789 274.894 80.3632 274.936 80.1546C275.035 79.6595 275.463 79.2988 275.965 79.2988H280.445C280.933 79.2988 281.364 79.6312 281.466 80.1086C281.569 80.586 281.569 81.0916 281.442 81.6114Z" stroke="black" stroke-width="0.75" stroke-miterlimit="10"/>
<path d="M270.453 82.4566C270.869 82.4566 271.207 82.1194 271.207 81.7034C271.207 81.2874 270.869 80.9502 270.453 80.9502C270.038 80.9502 269.7 81.2874 269.7 81.7034C269.7 82.1194 270.038 82.4566 270.453 82.4566Z" fill="#231F20"/>
<path d="M278.207 82.4566C278.623 82.4566 278.96 82.1194 278.96 81.7034C278.96 81.2874 278.623 80.9502 278.207 80.9502C277.791 80.9502 277.454 81.2874 277.454 81.7034C277.454 82.1194 277.791 82.4566 278.207 82.4566Z" fill="#231F20"/>
<path d="M273.271 80.8049H274.873" stroke="black" stroke-width="0.75" stroke-miterlimit="10"/>
<path d="M281.541 80.8051C281.541 80.8051 284.524 77.7499 286.83 78.8142M269.174 80.1191C269.174 80.1191 269.753 79.5462 271.659 80.0271M277.252 80.1085C277.252 80.1085 277.843 79.5462 279.741 80.0625M274.3 80.1085C274.3 80.1085 272.836 84.2598 272.713 84.7231C272.589 85.1828 273.338 85.8087 274.523 85.8087M272.454 88.4324C273.579 89.3695 275.576 89.9636 276.888 88.4324M283.231 83.4996C283.231 83.4996 283.418 82.3503 284.496 82.4564" stroke="black" stroke-width="0.75" stroke-miterlimit="10" stroke-linecap="round"/>
<path d="M318.758 214.013C318.758 214.013 321.099 229.12 333.904 228.681" stroke="#B77E34" stroke-width="2" stroke-miterlimit="10" stroke-linecap="round"/>
<path opacity="0.28" d="M336.665 235.064C336.563 234.286 336.464 233.413 336.372 232.426C336.358 232.253 336.34 232.083 336.319 231.91C336.435 232.942 336.549 233.996 336.665 235.064ZM334.968 279.619C339.635 274.46 336.824 237.118 336.672 235.145C338.15 248.936 339.621 265.216 340.197 279.619H334.968Z" fill="#FFF5E9"/>
<path opacity="0.53" d="M289.032 255.934L288.569 254.056L287.402 279.619H272.847C286.957 266.606 284.309 237.504 284.309 237.504L288.721 248.752L289.032 255.934Z" fill="#DD973A"/>
<path d="M303.386 279.619H294.897L282.718 231.164L303.386 279.619Z" fill="#F7C684"/>
<path d="M283.863 107.265C275.209 111.031 264.973 102.428 264.973 102.428C265.546 102.272 266.084 102.089 266.582 101.866L266.593 101.862C266.593 101.862 275.916 110.059 283.863 107.265Z" fill="#E0BEA4"/>
<g opacity="0.79">
<path d="M331.263 112.651H234.063C235.329 111.643 236.665 110.731 238.076 109.925C238.939 109.43 239.819 108.963 240.724 108.535H326.261C328.095 109.709 329.789 111.067 331.263 112.651ZM338.684 124.444H224.125C224.952 123.019 225.843 121.643 226.801 120.328H336.545C337.295 121.679 338.009 123.072 338.684 124.444ZM343.719 136.244H221.201V132.128H342.113C342.902 134.059 343.46 135.544 343.719 136.244ZM347.229 146.962L345.66 148.044H221.201V143.928H346.321C347.077 146.283 347.229 146.962 347.229 146.962ZM321.367 159.423C321.403 159.558 321.445 159.696 321.484 159.84H221.201V155.724H320.335C320.473 156.212 320.834 157.514 321.36 159.398C321.36 159.409 321.367 159.413 321.367 159.423Z" fill="white"/>
<path d="M334.512 155.724L333.261 156.583L322.888 155.724H334.512Z" fill="white"/>
<path d="M324.709 171.64H245.242L244.974 167.524H323.588C323.948 168.836 324.323 170.215 324.709 171.64ZM327.862 183.437H246.013L245.744 179.321H326.77C327.134 180.689 327.498 182.068 327.862 183.437ZM330.889 195.237H246.787L246.519 191.121H329.856C330.213 192.546 330.563 193.925 330.889 195.237ZM332.812 203.511C332.812 203.511 330.457 205.095 325.942 207.03H247.554L247.282 202.913H332.681C332.73 203.119 332.773 203.32 332.812 203.511Z" fill="white"/>
</g>
<path d="M317.493 155.71L315.87 147.072C315.87 147.072 334.802 147.072 344.542 138.603C346.642 144.816 347.229 146.962 347.229 146.962L333.261 156.584L320.279 155.505L317.493 155.71Z" fill="#869DEF"/>
<path opacity="0.35" d="M332.811 203.511C332.811 203.511 330.022 205.386 324.708 207.546C322.491 204.332 317.984 201.351 309.665 199.353C281.226 192.514 267.413 172.153 267.413 172.153C267.413 172.153 295.997 182.15 307.462 174.434C318.656 166.895 313.451 136.241 313.204 134.805L317.489 155.717L321.364 159.427C324.04 169.091 330.853 194.017 332.811 203.511ZM273.073 213.533C264.797 212.557 247.773 210.375 247.773 210.375L244.496 160.208L227.621 159.589L225.889 138.606L249.467 136.944C249.467 136.944 256.205 138.709 255.763 168.727C255.325 198.745 273.073 213.533 273.073 213.533Z" fill="#2B3990"/>
<path opacity="0.35" d="M232.942 130.452L233.607 139.812L216.485 146.605C218.698 132.485 225.649 117.05 238.076 109.929C238.956 109.423 239.854 108.953 240.777 108.514C230.107 118.889 232.942 130.452 232.942 130.452Z" fill="#2B3990"/>
<path d="M197.071 145.448L193.709 132.404C193.37 131.081 194.462 129.829 195.884 129.893L199.861 130.07L201.12 130.126L202.863 130.204L206.6 130.37C206.645 130.377 206.674 130.377 206.674 130.377L208.505 130.459C208.505 130.459 208.512 130.459 208.53 130.459C208.54 130.466 208.558 130.466 208.583 130.466L258.401 130.452C259.405 130.498 260.236 131.198 260.406 132.131L264.097 152.63C264.125 152.768 264.139 152.846 264.139 152.846L267.187 169.78C267.413 171.057 266.342 172.213 264.977 172.153L204.549 170.477C203.605 170.431 202.799 169.808 202.573 168.928L201.314 164.052C201.279 163.924 201.25 163.804 201.222 163.677L200.565 161.124L197.071 145.448Z" fill="#262262"/>
<path d="M264.089 152.63C263.683 150.519 260.299 133.602 256.078 132.821C251.687 132.015 210.619 130.643 208.576 130.466L258.394 130.452C259.398 130.498 260.229 131.198 260.398 132.131L264.089 152.63ZM197.071 145.448L193.709 132.404C193.37 131.081 194.462 129.829 195.884 129.893L199.861 130.07L201.12 130.126L202.863 130.204C200.066 130.211 196.799 130.565 197.128 132.216C197.683 135.042 197.192 147.874 201.219 163.677L200.561 161.124L197.071 145.448Z" fill="#444499"/>
<path d="M273.077 170.07C273.077 170.07 272.302 170.675 268.297 170.212C267.367 170.099 266.264 169.929 264.952 169.688C261.714 169.077 258.875 168.168 256.513 166.813C256.492 166.799 256.474 166.792 256.46 166.785C253.762 165.251 251.687 163.15 250.361 160.289C247.858 154.904 252.408 146.934 255.322 151.403C258.235 155.866 261.696 156.774 261.696 156.774C261.406 155.031 261.367 150.487 263.17 152.068C264.966 153.656 265.822 160.067 265.822 160.067L265.829 160.074L273.077 170.07Z" fill="#F4D1B3"/>
<path d="M348.534 177.443C345.808 186.591 338.638 193.95 322.202 192.758C320.289 192.616 318.433 192.443 316.623 192.227H316.57C314.516 191.983 312.532 191.697 310.612 191.372C310.552 191.358 310.499 191.35 310.439 191.336C309.428 191.163 308.435 190.979 307.466 190.785C307.243 190.739 307.028 190.696 306.812 190.65C300.646 189.391 295.223 187.73 290.496 185.891C289.64 185.562 288.806 185.219 287.993 184.879C285.953 184.017 284.061 183.129 282.311 182.234L282.304 182.227C282.021 182.086 281.746 181.937 281.47 181.789H281.463C280.582 181.326 279.734 180.859 278.931 180.403C269.326 174.897 264.952 169.685 264.952 169.685L265.168 167.263L265.815 160.067C265.815 160.067 265.815 160.067 265.822 160.067L265.829 160.074C266.151 160.201 271.436 162.27 278.528 164.437C278.528 164.437 278.528 164.437 278.535 164.437C288.396 167.439 301.77 170.618 310.202 168.967H310.209C315.11 168.005 318.348 165.413 318.238 160.208C318.217 158.882 317.977 157.393 317.492 155.717C317.492 155.717 320.254 155.604 324.694 154.883C325.246 154.794 325.825 154.702 326.43 154.593C328.145 154.282 330.064 153.893 332.136 153.401C333.953 152.963 335.873 152.305 337.701 151.576C339.578 150.83 341.371 150.006 342.863 149.274C345.352 148.051 347.042 147.068 347.042 147.068C347.042 147.068 347.279 147.796 347.607 149.066C348.894 153.953 351.677 166.884 348.534 177.443Z" fill="#F4D1B3"/>
<path opacity="0.61" d="M348.53 177.443C345.808 186.587 338.642 193.95 322.205 192.754C320.293 192.616 318.433 192.436 316.623 192.224C316.609 192.224 316.587 192.224 316.57 192.22C314.516 191.98 312.532 191.69 310.613 191.365C357.291 199.24 342.863 149.271 342.863 149.271C344.74 148.525 341.367 150.006 342.863 149.271C345.352 148.051 347.045 147.068 347.045 147.068C347.045 147.068 347.275 147.793 347.611 149.066C348.894 153.956 351.673 166.884 348.53 177.443Z" fill="#F7E7DA"/>
<path d="M228.652 152.922C230.217 152.241 230.834 150.19 230.029 148.34C229.225 146.49 227.304 145.542 225.739 146.223C224.174 146.903 223.558 148.955 224.362 150.805C225.166 152.655 227.087 153.603 228.652 152.922Z" fill="white"/>
<path d="M307.459 172.153C292.755 170.375 278.857 164.575 278.532 164.434C288.392 167.44 301.771 170.615 310.203 168.964H310.206C315.11 168.002 318.345 165.414 318.235 160.205C318.239 160.205 322.343 173.957 307.459 172.153Z" fill="#E0BEA4"/>
<path opacity="0.42" d="M347.229 146.962L343.27 149.695L337.687 151.636C337.687 151.636 342.824 141.94 335.248 123.05C327.201 102.983 318.479 104.818 315.672 103.885C321.456 105.579 327.357 108.347 331.461 112.863C337.917 119.974 343.885 136.686 343.885 136.686C346.812 145.077 347.229 146.962 347.229 146.962Z" fill="white"/>
<path d="M251.38 151.813C251.38 151.813 253.363 155.742 256.425 156.817M250.142 154.837C250.142 154.837 252.126 158.765 255.187 159.84M250.927 160.622C250.927 160.622 252.582 162.814 255.845 163.766" stroke="black" stroke-miterlimit="10" stroke-linecap="round"/>
<path d="M381.824 258.562H41.8054V295.16H381.824V258.562Z" fill="white"/>
<path d="M30.354 304.152L78.3158 269.891C78.5527 269.721 78.8391 269.633 79.129 269.633H132.242C133.274 269.633 133.957 270.708 133.518 271.645L103.722 305.906C103.488 306.401 102.993 306.716 102.445 306.716H31.1671C29.7918 306.716 29.2297 304.945 30.354 304.152Z" fill="#D6AC85"/>
<path d="M30.354 303.286L78.3158 269.025C78.5527 268.855 78.8391 268.767 79.129 268.767H132.242C133.274 268.767 133.957 269.842 133.518 270.779L103.722 305.04C103.488 305.535 102.993 305.85 102.445 305.85H31.1671C29.7918 305.85 29.2297 304.082 30.354 303.286Z" fill="#F7C797"/>
<path d="M44.754 296.773L42.0847 298.848L100.865 299.174L130.284 268.767H81.7136L44.754 296.773Z" fill="#CCCCCC"/>
<path d="M129.308 268.767L100.179 298.198L43.0569 298.056L73.041 275.337C73.041 275.337 73.0481 275.33 73.0622 275.315L74.2254 274.435C74.2395 274.421 74.2537 274.414 74.2643 274.407L81.7099 268.767H129.308Z" fill="#E0E0E0"/>
<path opacity="0.36" d="M89.1732 277.395C80.3877 272.296 71.4324 276.91 67.2888 279.722L81.7488 268.763H102.626C88.1268 268.767 89.1732 277.395 89.1732 277.395Z" fill="white"/>
<path d="M60.9038 294.601C60.3134 294.658 52.7405 295.492 52.6627 300.018C52.6556 300.45 53.0233 300.796 53.4546 300.796C58.224 300.796 84.7787 300.796 89.2864 300.796C89.6506 300.796 89.9617 300.545 90.0501 300.192C90.2869 299.248 91.0011 297.391 93.087 296.04C93.7411 295.616 93.43 294.598 92.6522 294.598C83.1807 294.598 61.9503 294.598 60.9781 294.598C60.9498 294.598 60.9286 294.598 60.9038 294.601ZM87.2818 299.025L56.6401 298.936C55.9683 298.933 55.6042 298.144 56.0391 297.632C57.6088 295.793 61.169 295.422 61.5579 295.386C61.5826 295.386 61.6039 295.383 61.6286 295.383H88.6041C89.3041 295.383 89.6399 296.21 89.1662 296.723C88.5581 297.381 88.1975 298.091 88.0101 298.544C87.8864 298.837 87.6 299.025 87.2818 299.025Z" fill="#414042"/>
<path d="M100.582 291.925H55.1233" stroke="white" stroke-miterlimit="10" stroke-linecap="round"/>
<path d="M60.2959 288.548H104.157" stroke="white" stroke-miterlimit="10" stroke-linecap="round"/>
<path d="M64.8352 284.905H107.197" stroke="white" stroke-miterlimit="10" stroke-linecap="round"/>
<path d="M70.1667 281.273H110.344" stroke="white" stroke-miterlimit="10" stroke-linecap="round"/>
<path d="M125.917 299.329L147.766 274.074C147.886 273.83 148.141 273.682 148.413 273.7L165.362 273.074C166.444 273.137 166.511 274.329 166.327 274.76L146.257 300.259C145.546 301.143 145.104 301.193 144.542 301.157L126.903 301.14C125.758 301.016 125.514 300.15 125.917 299.329Z" fill="#4361F7"/>
<path d="M125.917 299.329L146.882 274.004C147.346 273.381 147.385 272.914 148.746 272.996L165.366 273.07C165.832 273.098 166.129 273.579 165.946 274.011L145.698 299.729C145.21 300.383 144.85 300.422 144.196 300.411L126.483 300.302C125.907 300.277 125.702 299.761 125.917 299.329Z" fill="#8FA7FF"/>
<path d="M127.059 298.763L147.339 274.346C147.982 273.459 148.65 273.6 148.919 273.614L164.174 273.721C164.638 273.749 164.935 274.226 164.751 274.654L145.005 299.311C144.786 299.64 144.475 299.746 143.881 299.69L127.621 299.732C127.141 299.7 126.847 299.195 127.059 298.763Z" fill="#EFEFEF"/>
<path d="M139.317 300.16L139.479 299.728C139.684 299.322 139.628 298.975 138.914 298.975L133.876 298.982C133.271 298.947 132.677 299.152 132.221 299.555L131.542 300.156L139.317 300.16Z" fill="#8FA7FF"/>
<path d="M147.625 293.025L133.858 292.975C133.78 292.975 133.702 293.014 133.653 293.078L131.28 295.917C131.135 296.101 131.259 296.38 131.485 296.38L145.422 296.409C145.504 296.409 145.581 296.37 145.634 296.299L147.837 293.481C147.971 293.293 147.848 293.025 147.625 293.025ZM152.366 287.621L138.125 287.759C138.044 287.759 137.969 287.798 137.92 287.862L135.134 291.299C134.989 291.483 135.113 291.762 135.339 291.762H149.4C149.484 291.762 149.562 291.723 149.612 291.653L152.578 288.078C152.712 287.89 152.589 287.621 152.366 287.621ZM155.626 283.689L141.25 283.827C141.169 283.827 141.095 283.866 141.042 283.93L139.38 286.012C139.232 286.196 139.359 286.476 139.589 286.476L153.879 286.246C153.964 286.246 154.042 286.207 154.095 286.136L155.841 284.149C155.976 283.958 155.852 283.689 155.626 283.689Z" fill="#CFCFD3"/>
<path d="M151.263 274.714L160.671 274.622" stroke="#CFCFD3" stroke-width="0.5" stroke-miterlimit="10" stroke-linecap="round"/>
<path d="M376.52 299.351L351.977 274.096C351.857 273.852 351.602 273.703 351.33 273.721L334.381 273.095C333.299 273.159 333.232 274.35 333.416 274.782L356.354 300.372C356.86 301.242 357.333 301.214 357.892 301.179L375.689 301.14C376.842 301.016 376.923 300.171 376.52 299.351Z" fill="#FBB040"/>
<path d="M376.521 299.35L353.222 274.018C352.483 273.325 352.363 272.936 351.002 273.017L334.381 273.091C333.915 273.12 333.618 273.6 333.802 274.032L356.74 299.75C357.228 300.404 357.588 300.443 358.242 300.432L375.955 300.323C376.535 300.298 376.736 299.785 376.521 299.35Z" fill="#F7C684"/>
<path d="M375.379 298.788L352.656 274.562C351.684 273.533 351.094 273.625 350.825 273.643L335.569 273.749C335.106 273.777 334.809 274.255 334.993 274.682L357.429 299.34C357.648 299.668 357.959 299.775 358.553 299.718L374.82 299.76C375.297 299.725 375.591 299.216 375.379 298.788Z" fill="#EFEFEF"/>
<path d="M363.245 300.507L362.962 299.754C362.757 299.347 362.813 299 363.528 299L368.566 299.008C369.17 298.972 369.764 299.177 370.22 299.58L370.899 300.182L363.245 300.507Z" fill="#F7C684"/>
<path d="M354.137 293.049L367.904 292.999C367.982 292.999 368.06 293.038 368.109 293.102L370.966 295.867C371.111 296.051 370.987 296.33 370.761 296.33L357.015 296.433C356.934 296.433 356.856 296.394 356.803 296.323L353.925 293.505C353.791 293.317 353.918 293.049 354.137 293.049ZM349.4 287.642L363.043 287.741C363.125 287.741 363.199 287.78 363.248 287.843L366.632 291.316C366.777 291.5 366.653 291.779 366.427 291.779L352.766 291.836C352.681 291.836 352.603 291.797 352.554 291.726L349.188 288.098C349.053 287.911 349.177 287.642 349.4 287.642ZM346.14 283.71L359.193 283.791C359.274 283.791 359.349 283.83 359.402 283.894L361.286 285.945C361.435 286.128 361.307 286.408 361.077 286.408L347.887 286.259C347.802 286.259 347.724 286.22 347.671 286.15L345.925 284.162C345.787 283.978 345.914 283.71 346.14 283.71Z" fill="#CFCFD3"/>
<path d="M348.481 274.739L339.076 274.644" stroke="#CFCFD3" stroke-width="0.5" stroke-miterlimit="10" stroke-linecap="round"/>
<path d="M245.373 306.928L338.292 306.921C341.053 306.928 340.883 303.102 340.342 302.384L309.107 273.71C308.901 273.438 308.58 273.275 308.237 273.275L234.558 270.726C231.861 271.054 232.041 272.929 232.635 275.082L244.408 306.338C244.595 306.702 244.966 306.928 245.373 306.928Z" fill="#4361F7"/>
<path d="M246.554 304.138L339.472 304.131C340.37 304.131 340.883 303.102 340.342 302.384L311.323 271.358C310.443 269.986 308.636 268.597 306.317 268.735L234.109 268.682C233.292 268.682 232.765 269.548 233.14 270.273L245.585 303.548C245.772 303.908 246.147 304.138 246.554 304.138Z" fill="#8FA7FF"/>
<path d="M282.194 288.126C283.741 287.71 284.615 285.962 284.147 284.221C283.679 282.48 282.046 281.406 280.5 281.822C278.954 282.238 278.08 283.986 278.548 285.727C279.015 287.468 280.648 288.542 282.194 288.126Z" fill="white"/>
<path d="M27.9146 258.557H393.773" stroke="black" stroke-width="2" stroke-miterlimit="10" stroke-linecap="round"/>
<path d="M199.472 263.664L201.332 241.107L213.006 236.832" stroke="#BCBEC0" stroke-width="3" stroke-miterlimit="10" stroke-linecap="round" stroke-linejoin="round"/>
<path d="M193.405 282.136L195.364 272.713C195.611 272.554 196.251 271.493 197.305 271.493L210.573 271.616C212.164 271.616 212.712 273.738 211.319 274.505L201.915 284.76C201.696 284.88 201.434 284.859 201.18 284.866L194.268 284.972C192.712 284.997 192.101 282.974 193.405 282.136Z" fill="#E0E0E0"/>
<path d="M203.679 254.406L202.18 284.339C202.17 284.622 201.898 284.848 201.558 284.859L196.934 284.944L195.117 284.972L188.869 285.057C188.53 285.068 188.258 284.848 188.23 284.576L185.15 254.689C185.122 254.388 185.405 254.123 185.755 254.123L203.05 253.879C203.181 253.879 203.315 253.907 203.418 253.964C203.428 253.975 203.446 253.982 203.457 253.992C203.595 254.088 203.687 254.236 203.679 254.406Z" fill="#F7C684"/>
<path d="M203.679 254.406L202.18 284.34C202.17 284.622 201.897 284.849 201.558 284.859L195.555 284.944C195.424 284.859 195.329 284.728 195.318 284.576L193.607 254.689C193.568 254.389 193.851 254.124 194.218 254.124L203.45 253.993C203.594 254.088 203.686 254.237 203.679 254.406Z" fill="#FBB040"/>
<path d="M203.672 249.52V252.324C203.672 252.67 203.393 252.95 203.054 252.95L190.694 252.957H185.677C185.33 252.957 185.051 252.67 185.051 252.331V249.527C185.051 249.18 185.33 248.901 185.677 248.901H203.046C203.396 248.901 203.672 249.18 203.672 249.52Z" fill="#603C29"/>
<path d="M205.203 252.95V254.354C205.203 254.693 204.924 254.973 204.577 254.973L190.697 254.98H184.149C183.81 254.98 183.531 254.7 183.531 254.361V252.957C183.531 252.617 183.81 252.331 184.149 252.331H190.697L203.676 252.324H204.577C204.924 252.324 205.203 252.607 205.203 252.95Z" fill="#996441"/>
<path opacity="0.22" d="M190.694 252.331V254.979H184.146C183.807 254.979 183.527 254.7 183.527 254.361V252.957C183.527 252.617 183.807 252.331 184.146 252.331H185.048V249.527C185.048 249.18 185.327 248.901 185.673 248.901H190.69C190.694 248.901 190.697 250.556 190.694 252.331Z" fill="black"/>
<path opacity="0.99" d="M67.0377 134.964C63.1487 138.747 58.8248 145.003 66.3766 161.184C66.3766 161.191 66.3836 161.191 66.3836 161.198C58.093 155.434 58.4289 141.222 67.0377 134.964ZM69.7564 132.393C70.209 131.806 70.5979 131.194 70.9408 130.547C70.764 131.18 70.3433 131.77 69.7564 132.393ZM80.4724 102.428C88.664 94.3691 103.47 96.268 109.488 90.3698C103.792 99.5318 97.1844 101.526 85.3796 102.286C81.3951 102.541 78.6092 104.698 76.6294 107.732C77.5486 105.876 78.7824 104.083 80.4724 102.428ZM128.197 74.6907C127.579 74.5952 118.047 73.3045 111.931 85.8931C115.236 75.2388 121.858 72.4382 128.197 74.6907Z" fill="#754C29"/>
<path d="M177.231 115.502C173.791 105.936 164.69 103.366 155.551 99.3062C145.564 94.8648 142.986 82.1526 142.912 81.7954C147.692 88.2842 149.601 96.7743 164.344 98.8536C175.59 100.448 175.817 108.751 177.231 115.502ZM181.349 139.151C183.517 134.713 179.868 127.761 178.139 118.84C178.744 120.484 179.599 121.888 180.961 122.906C187.925 128.097 187.07 134.271 181.349 139.151Z" fill="#754C29"/>
<path d="M292.44 74.9422C293.296 69.5779 286.108 69.8254 286.108 69.8254C286.108 69.8254 286.688 67.6649 284.5 66.3989C282.304 65.1401 280.091 67.0849 280.091 67.0849C279.769 64.447 278.327 63.5029 277.797 63.2341C279.161 63.7716 279.734 64.7688 279.734 64.7688C279.734 64.7688 281.647 62.6684 284.404 64.546C287.158 66.4237 286.296 69.0157 286.296 69.0157C286.296 69.0157 290.457 68.0857 292.09 71.8021C292.635 73.0503 292.656 74.1006 292.44 74.9422Z" fill="#A97C50"/>
<path d="M217.291 110.781C216.004 112.478 214.841 113.306 213.844 113.649C213.872 114.395 213.957 117.662 213.731 122.387C213.893 118.483 212.606 115.385 211.719 113.723C211.362 113.062 211.072 112.634 210.945 112.464C210.909 112.411 210.892 112.383 210.892 112.383C210.892 112.383 213.274 113.03 216.089 110.976C218.903 108.914 216.485 106.693 216.485 106.693C217.729 107.496 218.772 108.829 217.291 110.781ZM278.931 180.403C269.325 174.898 264.952 169.686 264.952 169.686C261.714 169.074 258.875 168.165 256.513 166.811C257.234 167.094 262.301 169.031 265.168 167.263C265.398 167.122 265.613 166.959 265.808 166.772C265.808 166.772 266.73 168.2 268.297 170.212C270.672 173.246 274.53 177.617 278.931 180.403ZM282.304 182.228C282.021 182.087 281.746 181.938 281.47 181.79C281.791 181.945 282.067 182.087 282.304 182.228Z" fill="#E5C2A8"/>
<path d="M122.908 176.52C122.983 176.273 123.23 175.916 123.704 175.431C123.439 175.792 123.17 176.156 122.908 176.52ZM135.427 161.333L135.435 161.354C132.246 164.147 129.255 167.91 126.274 171.923C127.929 168.893 131.432 164.901 131.432 164.901C125.673 162.765 125.91 157.832 125.91 157.832C126.879 160.944 128.272 163.606 130.81 163.302C131.673 163.2 133.083 161.856 133.313 161.089C133.759 159.6 133.334 157.535 133.334 157.535C133.684 157.871 134.042 158.175 134.413 158.444C138.917 161.715 144.803 160.024 144.803 160.024C142.898 161.029 139.935 161.831 135.427 161.333Z" fill="#E0BEA4"/>
<path d="M132.274 165.261C130.937 165.261 128.685 164.812 126.458 161.895C123.997 158.67 124.043 155.852 124.503 154.07C124.768 153.037 126.03 152.648 126.84 153.338C126.741 153.486 123.785 155.551 127.529 161.078C129.944 164.643 132.924 163.67 133.048 163.645L133.172 164.073C133.342 164.664 132.907 165.258 132.292 165.261C132.288 165.261 132.281 165.261 132.274 165.261Z" fill="#6B8AF9"/>
<path d="M40.8438 169.734C40.8438 169.734 41.7064 163.355 48.9753 165.413C48.9753 165.413 46.3378 171.262 40.8438 169.734Z" fill="#ABBDFF"/>
<path d="M41.2645 169.681C41.2645 169.681 41.1054 163.246 33.6563 164.497C33.6527 164.501 35.6361 170.601 41.2645 169.681ZM40.2322 178.182C40.2322 178.182 40.9322 171.782 48.2506 173.656C48.2506 173.656 45.7616 179.568 40.2322 178.182Z" fill="#ABBDFF"/>
<path d="M40.6493 178.119C40.6493 178.119 40.3275 171.686 32.9102 173.133C32.9102 173.133 35.0456 179.183 40.6493 178.119ZM40.9215 188.267C40.9215 188.267 40.6952 181.832 48.208 182.638C48.208 182.638 46.5923 188.847 40.9215 188.267Z" fill="#ABBDFF"/>
<path d="M41.3244 188.147C41.3244 188.147 40.0835 181.828 32.949 184.321C32.949 184.321 35.9329 190.003 41.3244 188.147ZM42.7846 198.699C42.7846 198.699 41.579 192.373 49.1272 192.022C49.1272 192.022 48.4802 198.409 42.7846 198.699Z" fill="#ABBDFF"/>
<path d="M43.1665 198.518C43.1665 198.518 40.9745 192.465 34.3066 196.015C34.3066 196.018 38.1214 201.178 43.1665 198.518ZM41.5296 166.414C41.5296 166.414 45.0862 163.384 43.6791 158.55C43.6756 158.55 37.181 161.149 41.5296 166.414Z" fill="#ABBDFF"/>
<path d="M351.472 19.9872C352.827 19.9872 353.925 18.8885 353.925 17.5332C353.925 16.1778 352.827 15.0791 351.472 15.0791C350.117 15.0791 349.018 16.1778 349.018 17.5332C349.018 18.8885 350.117 19.9872 351.472 19.9872Z" fill="#009444"/>
<path d="M363.142 19.9872C364.497 19.9872 365.596 18.8885 365.596 17.5332C365.596 16.1778 364.497 15.0791 363.142 15.0791C361.787 15.0791 360.688 16.1778 360.688 17.5332C360.688 18.8885 361.787 19.9872 363.142 19.9872Z" fill="#FFF200"/>
<path d="M374.813 19.9872C376.168 19.9872 377.266 18.8885 377.266 17.5332C377.266 16.1778 376.168 15.0791 374.813 15.0791C373.458 15.0791 372.359 16.1778 372.359 17.5332C372.359 18.8885 373.458 19.9872 374.813 19.9872Z" fill="#ED1C24"/>
<path d="M33.536 84.631C37.0233 84.631 39.8503 81.8034 39.8503 78.3155C39.8503 74.8275 37.0233 72 33.536 72C30.0487 72 27.2217 74.8275 27.2217 78.3155C27.2217 81.8034 30.0487 84.631 33.536 84.631Z" stroke="#603913" stroke-miterlimit="10"/>
<path d="M75.371 90.625C80.514 90.625 84.6833 86.455 84.6833 81.3109C84.6833 76.1669 80.514 71.9968 75.371 71.9968C70.2279 71.9968 66.0586 76.1669 66.0586 81.3109C66.0586 86.455 70.2279 90.625 75.371 90.625Z" fill="white"/>
<path d="M87.9453 97.3432C87.9453 99.0671 87.448 100.448 86.4534 101.487C85.4589 102.526 84.2543 103.211 82.8398 103.543V105.664C82.8398 106.438 82.7625 106.979 82.6078 107.289C82.4752 107.598 82.2652 107.808 81.9779 107.919C81.7127 108.029 81.348 108.084 80.8839 108.084C80.4198 108.084 80.044 108.029 79.7567 107.919C79.4915 107.808 79.3036 107.609 79.1931 107.322C79.0384 106.946 78.9611 106.383 78.9611 105.631V103.576C78.0549 103.377 77.2372 103.045 76.5078 102.581C75.7785 102.117 75.2701 101.708 74.9828 101.355L74.5518 100.791C74.0877 100.194 73.8557 99.6749 73.8557 99.2329C73.8557 98.7909 74.2314 98.2052 74.9828 97.4758C75.4249 97.0559 75.889 96.846 76.3752 96.846C76.8835 96.846 77.5797 97.288 78.4638 98.172C79.1489 99.0119 79.9225 99.4318 80.7844 99.4318C82.4199 99.4318 83.2377 98.7577 83.2377 97.4095C83.2377 96.9233 82.9283 96.5476 82.3094 96.2824C81.6906 96.0172 80.9391 95.7851 80.0551 95.5862C79.171 95.3652 78.287 95.0778 77.4029 94.7242C76.5189 94.3706 75.7674 93.7628 75.1486 92.9009C74.5297 92.0389 74.2203 90.9449 74.2203 89.6188C74.2203 88.2927 74.6403 87.0993 75.4801 86.0384C76.32 84.9775 77.4803 84.2924 78.9611 83.983V82.1265C78.9611 81.375 79.0274 80.8335 79.16 80.502C79.381 79.9716 79.9667 79.7064 80.917 79.7064C81.5138 79.7064 81.9558 79.839 82.2431 80.1042C82.5525 80.3473 82.7293 80.6125 82.7735 80.8998C82.8177 81.1872 82.8398 81.6071 82.8398 82.1596V84.0161C83.4587 84.1487 84.0223 84.3366 84.5306 84.5797C85.0389 84.8228 85.3926 85.0217 85.5915 85.1764L85.8898 85.4417L86.0224 85.5411C86.575 86.0495 86.8512 86.4694 86.8512 86.8009C86.8512 87.1324 86.586 87.685 86.0556 88.4585C85.5473 89.232 84.9837 89.6188 84.3648 89.6188C83.967 89.6188 83.6244 89.5194 83.3371 89.3204C83.0719 89.1215 82.8619 88.9558 82.7072 88.8232C82.5525 88.6906 82.4089 88.5801 82.2763 88.4916C81.9005 88.2485 81.4254 88.127 80.8507 88.127C80.2761 88.127 79.8009 88.2706 79.4252 88.558C79.0495 88.8232 78.8616 89.1989 78.8616 89.6851C78.8616 90.1714 79.0826 90.5692 79.5246 90.8786C79.9888 91.1659 80.5524 91.3648 81.2154 91.4753C81.8784 91.5637 82.6078 91.7295 83.4034 91.9726C84.1991 92.1936 84.9284 92.4588 85.5915 92.7683C86.2545 93.0777 86.807 93.6302 87.2491 94.4259C87.7132 95.1994 87.9453 96.1719 87.9453 97.3432Z" fill="#00AEEF"/>
<path d="M117.625 97.3432C117.625 99.0671 117.127 100.448 116.133 101.487C115.138 102.526 113.934 103.211 112.519 103.543V105.664C112.519 106.438 112.442 106.979 112.287 107.289C112.155 107.598 111.945 107.808 111.657 107.919C111.392 108.029 111.027 108.084 110.563 108.084C110.099 108.084 109.723 108.029 109.436 107.919C109.171 107.808 108.983 107.609 108.873 107.322C108.718 106.946 108.641 106.383 108.641 105.631V103.576C107.734 103.377 106.917 103.045 106.187 102.581C105.458 102.117 104.95 101.708 104.662 101.355L104.231 100.791C103.767 100.194 103.535 99.6749 103.535 99.2329C103.535 98.7909 103.911 98.2052 104.662 97.4758C105.104 97.0559 105.568 96.846 106.055 96.846C106.563 96.846 107.259 97.288 108.143 98.172C108.828 99.0119 109.602 99.4318 110.464 99.4318C112.099 99.4318 112.917 98.7577 112.917 97.4095C112.917 96.9233 112.608 96.5476 111.989 96.2824C111.37 96.0172 110.619 95.7851 109.735 95.5862C108.85 95.3652 107.966 95.0778 107.082 94.7242C106.198 94.3706 105.447 93.7628 104.828 92.9009C104.209 92.0389 103.9 90.9449 103.9 89.6188C103.9 88.2927 104.32 87.0993 105.16 86.0384C105.999 84.9775 107.16 84.2924 108.641 83.983V82.1265C108.641 81.375 108.707 80.8335 108.839 80.502C109.06 79.9716 109.646 79.7064 110.596 79.7064C111.193 79.7064 111.635 79.839 111.923 80.1042C112.232 80.3473 112.409 80.6125 112.453 80.8998C112.497 81.1872 112.519 81.6071 112.519 82.1596V84.0161C113.138 84.1487 113.702 84.3366 114.21 84.5797C114.718 84.8228 115.072 85.0217 115.271 85.1764L115.569 85.4417L115.702 85.5411C116.254 86.0495 116.531 86.4694 116.531 86.8009C116.531 87.1324 116.265 87.685 115.735 88.4585C115.227 89.232 114.663 89.6188 114.044 89.6188C113.646 89.6188 113.304 89.5194 113.017 89.3204C112.751 89.1215 112.541 88.9558 112.387 88.8232C112.232 88.6906 112.088 88.5801 111.956 88.4916C111.58 88.2485 111.105 88.127 110.53 88.127C109.956 88.127 109.48 88.2706 109.105 88.558C108.729 88.8232 108.541 89.1989 108.541 89.6851C108.541 90.1714 108.762 90.5692 109.204 90.8786C109.668 91.1659 110.232 91.3648 110.895 91.4753C111.558 91.5637 112.287 91.7295 113.083 91.9726C113.879 92.1936 114.608 92.4588 115.271 92.7683C115.934 93.0777 116.486 93.6302 116.929 94.4259C117.393 95.1994 117.625 96.1719 117.625 97.3432Z" fill="#00AEEF"/>
<path d="M346.451 104.886C347.258 104.886 347.911 104.232 347.911 103.426C347.911 102.619 347.258 101.965 346.451 101.965C345.645 101.965 344.991 102.619 344.991 103.426C344.991 104.232 345.645 104.886 346.451 104.886Z" fill="white"/>
<path d="M353.444 104.886C354.251 104.886 354.904 104.232 354.904 103.426C354.904 102.619 354.251 101.965 353.444 101.965C352.638 101.965 351.984 102.619 351.984 103.426C351.984 104.232 352.638 104.886 353.444 104.886Z" fill="white"/>
<path d="M360.434 104.886C361.24 104.886 361.894 104.232 361.894 103.426C361.894 102.619 361.24 101.965 360.434 101.965C359.628 101.965 358.974 102.619 358.974 103.426C358.974 104.232 359.628 104.886 360.434 104.886Z" fill="white"/>
</svg>
