<svg width="76" height="76" viewBox="0 0 76 76" fill="none" xmlns="http://www.w3.org/2000/svg">
<rect width="76" height="76" rx="28" fill="#E9EAFB"/>
<path d="M38 60C50.7025 60 61 49.7025 61 37C61 24.2974 50.7025 14 38 14C25.2974 14 15 24.2974 15 37C15 49.7025 25.2974 60 38 60ZM39.9167 26.4583V35.6777L45.621 40.5671C46.8266 41.6004 46.9662 43.4155 45.9329 44.621C44.8996 45.8266 43.0845 45.9662 41.879 44.9329L35.1706 39.1829C34.5333 38.6366 34.1667 37.8393 34.1667 37V26.4583C34.1667 24.8705 35.4539 23.5833 37.0417 23.5833C38.6294 23.5833 39.9167 24.8705 39.9167 26.4583Z" fill="#4045BF"/>
</svg>
